<svg width="133px" height="39px" viewBox="0 0 133 39" version="1.1" xmlns="http://www.w3.org/2000/svg" xmlns:xlink="http://www.w3.org/1999/xlink">
    <!-- Generator: Sketch 43.1 (39012) - http://www.bohemiancoding.com/sketch -->
    <title>平台logo／想看视频／白色</title>
    <desc>Created with Sketch.</desc>
    <defs>
        <polygon id="path-1" points="0.136374581 0.29694765 8.47497015 0.29694765 8.47497015 15.0056945 0.136374581 15.0056945 0.136374581 0.29694765"></polygon>
        <polygon id="path-3" points="3.72641033 0.129758232 3.72641033 4.92742102 0.0759316294 4.92742102 0.0759316294 0.129758232 3.72641033 0.129758232"></polygon>
        <polygon id="path-5" points="0 6.53461474 0 0.164448725 3.4709248 0.164448725 3.4709248 6.53461474"></polygon>
        <path d="M10.766602,1.3063356 C11.5995915,0.471144078 12.6917413,0.0537325235 13.7835236,0.0537325235 C14.8756735,0.0537325235 15.9674558,0.471144078 16.8004452,1.3063356 C18.4667917,2.97598182 18.4667917,5.68307812 16.8004452,7.35346116 L11.2165487,12.9492812 L16.8004452,18.5454696 C18.4667917,20.2154843 18.4667917,22.922949 16.8004452,24.5925952 C15.1344663,26.2626098 12.4329485,26.2626098 10.766602,24.5925952 L5.18270547,18.9964068 L0.701619287,14.5054563 C-0.155999586,13.6459496 -0.155999586,12.2529813 0.701619287,11.3934745 L5.18307307,6.90252405 L10.766602,1.3063356 Z" id="path-7"></path>
        <linearGradient x1="50%" y1="0%" x2="50%" y2="100%" id="linearGradient-9">
            <stop stop-color="#FFFFFF" offset="0%"></stop>
            <stop stop-color="#000000" offset="100%"></stop>
        </linearGradient>
        <linearGradient x1="50%" y1="0%" x2="50%" y2="99.5157047%" id="linearGradient-10">
            <stop stop-color="#7D1EFA" offset="0%"></stop>
            <stop stop-color="#6924FA" offset="100%"></stop>
        </linearGradient>
        <path d="M10.766602,1.3063356 L5.18307307,6.90252405 L0.701619287,11.3934745 C-0.155999586,12.2529813 -0.155999586,13.6459496 0.701619287,14.5054563 L0.701619287,14.5054563 L5.18270547,18.9964068 L10.766602,24.5925952 C12.4329485,26.2626098 15.1344663,26.2626098 16.8004452,24.5925952 L16.8004452,24.5925952 C18.4667917,22.922949 18.4667917,20.2154843 16.8004452,18.5454696 L16.8004452,18.5454696 L11.2165487,12.9492812 L16.8004452,7.35346116 C18.4667917,5.68307812 18.4667917,2.97598182 16.8004452,1.3063356 L16.8004452,1.3063356 C15.9674558,0.471144078 14.8756735,0.0537325235 13.7835236,0.0537325235 L13.7835236,0.0537325235 C12.6917413,0.0537325235 11.5995915,0.471144078 10.766602,1.3063356" id="path-11"></path>
        <linearGradient x1="50%" y1="2.86391901%" x2="50%" y2="100%" id="linearGradient-12">
            <stop stop-color="#FB6C46" offset="0%"></stop>
            <stop stop-color="#FB3144" offset="100%"></stop>
        </linearGradient>
        <path d="M10.1974232,22.1801001 L5.18270547,17.1543434 L0.701619287,12.663393 C-0.155999586,11.8038862 -0.155999586,10.4109179 0.701619287,9.55141115 L5.18307307,5.0604607 L10.1974232,0.0347415647 L10.1974232,22.1801001 L10.1974232,22.1801001 Z" id="path-13"></path>
    </defs>
    <g id="规范文档" stroke="none" stroke-width="1" fill="none" fill-rule="evenodd">
        <g id="全局图标" transform="translate(-595.000000, -1293.000000)">
            <g id="平台logo／想看视频／白色" transform="translate(596.000000, 1294.000000)">
                <path d="M52.5512832,16.0040007 C52.9519224,16.0040007 53.2802389,15.6746195 53.2802389,15.2713617 L53.2831032,11.4005914 C53.2831032,11.2982454 53.4180818,11.265091 53.4657002,11.3555447 C53.9214765,12.2276483 54.4710576,13.1264194 55.1262585,13.9671705 C55.2938181,14.181953 55.5430092,14.2943895 55.7950647,14.2943895 C55.9783777,14.2947499 56.1634809,14.2352883 56.3192254,14.112401 C56.6908639,13.819057 56.7291735,13.254352 56.4384505,12.8788429 C54.9633534,10.9731886 54.0618256,8.67761029 53.614642,7.31828197 C53.5938761,7.25521663 53.6411365,7.19179092 53.7073726,7.19179092 C54.0607515,7.19215129 55.0403305,7.19287204 55.7288285,7.19359278 C56.1291097,7.19359278 56.4563521,6.86421153 56.4567102,6.46131411 L56.4570682,6.22671105 C56.4570682,5.82345326 56.1298258,5.49299089 55.7291865,5.49299089 L53.3847847,5.49118902 C53.3310797,5.49118902 53.2877576,5.44722347 53.2877576,5.39316747 L53.2891898,3.23849513 C53.2895478,2.83523734 52.9619474,2.50513534 52.5613081,2.50477497 L52.3285865,2.50477497 C51.9279473,2.50441459 51.5999888,2.83415622 51.5996307,3.23741401 L51.5978406,5.39208635 C51.5978406,5.44578198 51.5545186,5.48974753 51.5008136,5.48974753 L49.1567697,5.48794566 C48.7557724,5.48758529 48.427814,5.81732691 48.4274559,6.22058471 L48.4274559,6.45482739 C48.4270979,6.85808518 48.7546983,7.18818718 49.1553376,7.18854756 L51.1760774,7.18998905 C51.2423135,7.18998905 51.289932,7.25341476 51.269166,7.3164801 C50.8216244,8.67292543 49.9190226,10.9630982 48.4367648,12.8719958 C48.1453257,13.2475049 48.1822031,13.8136514 48.5545577,14.1077161 C48.7099442,14.2298827 48.8946894,14.2893443 49.0776444,14.2897047 C49.3293417,14.2897047 49.5788909,14.1776285 49.7468085,13.962846 C50.4030835,13.1231761 50.9540968,12.225486 51.4109472,11.3541032 C51.4585656,11.2632892 51.5935442,11.2968039 51.5935442,11.3991499 L51.5906799,15.2699202 C51.5903219,15.673178 51.9179223,16.0036404 52.3185616,16.0040007 L52.5512832,16.0040007 Z" id="Fill-1" fill="#FFFFFF"></path>
                <path d="M63.4889849,13.8352378 L59.1410288,13.8319944 C59.0067664,13.8319944 58.8982823,13.7224409 58.8982823,13.5876613 L58.9043688,5.11744581 C58.9047269,4.9823058 59.013569,4.87311267 59.1474734,4.87311267 L63.4957876,4.87635603 C63.629692,4.87635603 63.7385341,4.98590953 63.7381761,5.12104954 L63.7320895,13.5909047 C63.7320895,13.7260447 63.6232474,13.8352378 63.4889849,13.8352378 M57.9215675,15.5318756 L57.9251478,15.5318756 L58.1825738,15.5318756 L64.4449338,15.5365605 L64.7023597,15.5369208 L64.705582,15.5369208 C65.0987025,15.5372812 65.4205745,15.2136659 65.4209325,14.8183363 L65.4209325,14.8147326 L65.4209325,14.5592279 L65.4284512,4.15524893 L65.4284512,4.15524893 L65.4288092,3.89974422 L65.4288092,3.89974422 L65.4288092,3.89614048 C65.4291673,3.5008109 65.1076534,3.17683525 64.7148909,3.17647488 L64.7116686,3.17647488 L64.4542426,3.17647488 L58.1915246,3.17179002 L57.9340987,3.17142965 L57.9308764,3.17142965 C57.5377558,3.17106928 57.216242,3.49468456 57.2158839,3.89001413 L57.2080072,14.8118496 C57.2076492,15.2075396 57.528805,15.5315152 57.9215675,15.5318756" id="Fill-3" fill="#FFFFFF"></path>
                <path d="M61.1257505,9.20054807 L62.7071835,7.61130155 C63.035858,7.28083917 63.0362161,6.73955838 62.7078995,6.40873564 C62.379583,6.07755252 61.841817,6.07719214 61.5131425,6.40765452 L59.9317095,7.99726142 C59.603035,8.32772379 59.6026769,8.86864421 59.9309935,9.19982733 C60.25931,9.53065007 60.797076,9.53101045 61.1257505,9.20054807" id="Fill-5" fill="#FFFFFF"></path>
                <path d="M61.5108869,9.61512159 L59.9294539,11.2047285 C59.6007794,11.5351909 59.6004213,12.0761113 59.9287378,12.4072944 C60.2570544,12.7381171 60.7944623,12.7384775 61.1231369,12.4080151 L62.7045698,10.8187686 C63.0336024,10.4883062 63.0339604,9.94702546 62.7056439,9.61620271 C62.3773274,9.28501959 61.8395614,9.28465922 61.5108869,9.61512159" id="Fill-7" fill="#FFFFFF"></path>
                <path d="M62.3029997,21.741469 L55.7037304,21.7364238 C54.7134103,21.735703 53.9114158,20.9273856 53.9121319,19.9305929 L53.913564,17.9521431 C53.913922,17.5470834 53.5881118,17.2187833 53.1856824,17.2184229 L52.9529607,17.2184229 C52.5508894,17.2180626 52.224363,17.5460023 52.224005,17.951062 L52.2229309,19.2797586 L52.2225728,20.1378075 C52.2211407,21.9587741 53.6865709,23.4359445 55.495355,23.4370257 L58.4802784,23.4391879 L62.3019256,23.4420709 C62.703997,23.4424313 63.0305233,23.1144915 63.0308814,22.7097922 L63.0308814,22.4751892 C63.0312394,22.0704899 62.7054291,21.7418294 62.3029997,21.741469" id="Fill-9" fill="#FFFFFF"></path>
                <path d="M109.425146,21.775236 L108.611336,21.7748756 C107.621016,21.7741549 106.819022,20.965477 106.819738,19.9686843 L106.822244,16.5238754 C106.822602,16.1188157 106.496792,15.7905156 106.094362,15.7901552 L105.861641,15.7897948 C105.459211,15.7894344 105.133043,16.1173742 105.132685,16.5224339 L105.130537,19.3182104 L105.129821,20.175899 C105.128746,21.9968656 106.594177,23.4736756 108.402961,23.4751171 L108.516099,23.4754775 L109.424072,23.4758379 C109.826143,23.4761983 110.152669,23.1482585 110.153027,22.7435592 L110.153027,22.5089562 C110.153385,22.1042569 109.827575,21.7755964 109.425146,21.775236" id="Fill-11" fill="#FFFFFF"></path>
                <g id="Group-15" stroke-width="1" transform="translate(114.013856, 2.063462)">
                    <mask id="mask-2" fill="white">
                        <use xlink:href="#path-1"></use>
                    </mask>
                    <g id="Clip-14"></g>
                    <path d="M8.47496986,8.57699413 L8.47496986,8.34275145 C8.47532789,7.93949365 8.14772744,7.60939165 7.74708821,7.60903128 L5.28238714,7.60722941 C5.22868215,7.60722941 5.18536012,7.56326386 5.18536012,7.50956823 L5.18750832,4.53612762 C5.18750832,4.48207162 5.23083035,4.43810607 5.28453534,4.43846644 L7.2100383,4.43990793 C7.61067753,4.43990793 7.93863601,4.11016631 7.93899404,3.70690851 L7.93899404,3.47266583 C7.93935208,3.06940804 7.61175163,2.73930604 7.2111124,2.73894566 L5.28596747,2.73750417 C5.23226248,2.73750417 5.18894046,2.69353862 5.18894046,2.63984299 L5.19001456,1.03077593 C5.19037259,0.627518135 4.86277214,0.297416136 4.46213291,0.297055762 L4.22941128,0.296695389 C3.82877204,0.296695389 3.50045553,0.626437015 3.50045553,1.02969481 L3.49544306,7.50812674 C3.49544306,7.56218274 3.45212104,7.60578792 3.39841605,7.60578792 L2.69523869,7.60542755 C2.64189174,7.60506717 2.59821168,7.561462 2.59821168,7.50740599 L2.60107594,3.8748425 C2.60143398,3.47158471 2.27383353,3.14148271 1.87319429,3.14112234 L1.76435218,3.14941092 C1.36371294,3.14905055 1.03575446,3.47879218 1.03539643,3.88204997 L1.03253216,7.59822008 L0.865688656,7.60398605 C0.464691388,7.60362568 0.136732908,7.93336731 0.136374875,8.3366251 L0.136374875,8.57086778 C0.136016841,8.97412558 0.463617288,9.30422758 0.864256523,9.30458795 L3.15423735,9.30602944 C3.20794234,9.30638982 3.2516224,9.35035537 3.25126437,9.404051 L3.24768404,14.271614 C3.247326,14.6748718 3.57492645,15.0049738 3.97592372,15.0053342 L4.20828732,15.0056945 C4.60892655,15.0056945 4.93724306,14.6763133 4.9376011,14.2730555 L4.9408234,9.40549249 C4.9408234,9.35143649 4.98450346,9.30747094 5.03820845,9.30747094 L7.74601411,9.30963318 C8.14665334,9.30999355 8.47496986,8.98025192 8.47496986,8.57699413" id="Fill-13" fill="#FFFFFF" mask="url(#mask-2)"></path>
                </g>
                <path d="M123.679001,7.78208248 C123.278361,7.78172211 122.950403,8.11146374 122.950045,8.51472153 L122.943958,16.693395 C122.9436,17.0966528 123.271201,17.4267548 123.67184,17.4271151 L123.904561,17.4274755 C124.305201,17.4278359 124.633517,17.0980943 124.633517,16.6944761 L124.639604,8.51616302 C124.639962,8.11254486 124.312361,7.78244286 123.911722,7.78208248 L123.679001,7.78208248 Z" id="Fill-16" fill="#FFFFFF"></path>
                <path d="M123.316599,5.33179588 L125.479478,5.33323738 C125.80135,5.33359775 126.034072,5.64351884 125.946354,5.9552418 L125.285066,8.30667799 C125.282202,8.31604769 125.282202,8.32577777 125.279696,8.33514748 C125.274683,8.35713026 125.271103,8.37947341 125.268239,8.40181655 C125.25893,8.4580348 125.255349,8.5135323 125.257498,8.56902979 L125.25714,8.74056751 C125.256782,9.14382531 125.584382,9.47392731 125.985379,9.47428768 L129.26568,9.47681029 C129.533847,9.47681029 129.751173,9.6959173 129.750815,9.96583695 L129.745803,16.6986925 C129.745445,17.1019503 130.073045,17.4320523 130.473684,17.4324126 L130.706406,17.4324126 C131.107045,17.432773 131.435362,17.1030314 131.435362,16.6997736 L131.441448,8.74525237 L131.441448,8.52110014 L131.441448,8.51100968 C131.441806,8.10775189 131.114206,7.77764989 130.713567,7.77728952 L127.832473,7.77512728 C127.510243,7.7747669 127.277879,7.46484581 127.365598,7.15312285 L127.776978,5.69108812 C127.836411,5.48063008 128.027243,5.33539962 128.244569,5.33539962 L130.83673,5.33756186 C131.237727,5.33756186 131.565686,5.0081806 131.566044,4.60456244 L131.566044,4.37068013 C131.566402,3.96706196 131.238802,3.63695996 130.838162,3.63659959 L123.317673,3.63119399 C122.917392,3.63083361 122.589076,3.99877482 122.588718,4.40203261 L122.588718,4.63627529 C122.58836,5.03953309 122.91596,5.33143551 123.316599,5.33179588" id="Fill-18" fill="#FFFFFF"></path>
                <path d="M115.861881,16.3678697 L116.397499,13.5083071 C116.480563,13.0484707 116.174086,12.6034096 115.716878,12.5201633 C115.259669,12.4365567 114.817856,12.7450363 114.73515,13.2052331 L114.199174,16.0647957 C114.116469,16.5249925 114.422587,16.9696932 114.880154,17.0529395 C115.337362,17.1361857 115.779175,16.8280665 115.861881,16.3678697" id="Fill-20" fill="#FFFFFF"></path>
                <path d="M128.135548,11.6747635 C128.135906,11.202314 127.755317,10.8188767 127.286293,10.8188767 C126.816912,10.8185164 126.435964,11.2012329 126.435606,11.6736823 L126.434532,13.1695922 C126.430952,18.1009413 125.189292,20.796534 122.408448,21.9104481 C121.972721,22.0852292 121.759692,22.5829048 121.933338,23.0218395 C122.06581,23.3569867 122.384818,23.5605977 122.722443,23.5609581 C122.827347,23.5609581 122.933683,23.5414979 123.037154,23.500055 C127.600288,21.6722413 128.13161,16.7297206 128.134474,13.1710337 L128.135548,11.6747635 Z" id="Fill-22" fill="#FFFFFF"></path>
                <path d="M120.803206,12.5243076 C120.333824,12.5239473 119.952877,12.9066638 119.952877,13.3791132 C119.949296,18.0326145 118.598079,20.3263909 114.966905,21.8424817 C114.533685,22.0233891 114.327816,22.5239477 114.507907,22.9603598 C114.643243,23.2893807 114.959387,23.4879464 115.292357,23.4883068 C115.4012,23.4883068 115.511832,23.4674051 115.618526,23.4227188 C119.900604,21.6349066 121.648522,18.7256124 121.652461,13.3801944 C121.652819,12.9077449 121.272587,12.524668 120.803206,12.5243076" id="Fill-24" fill="#FFFFFF"></path>
                <path d="M84.3615503,22.0398942 L75.8102835,22.0334075 C75.5421166,22.0330471 75.3247904,21.8143005 75.3247904,21.5443808 L75.3290868,15.565066 C75.3294448,15.2951463 75.5471291,15.0763997 75.815296,15.0767601 L84.3669208,15.0828864 C84.6350877,15.0832468 84.8524139,15.3023538 84.8520559,15.5722735 L84.8474014,21.5515883 C84.8474014,21.8215079 84.6297172,22.0398942 84.3615503,22.0398942 M87.7864966,10.1266716 L78.0845109,10.1194641 C78.0132623,10.1194641 77.967434,10.0434253 77.9982249,9.97855813 C78.2051681,9.54611009 78.3895552,9.1266355 78.5535345,8.72553995 C78.5682138,8.68914224 78.6033011,8.66607834 78.6423267,8.66607834 L86.9587237,8.67220469 C87.3661655,8.67256506 87.6998525,8.33741783 87.7002106,7.92731295 L87.7002106,7.71757565 C87.7005686,7.30783114 87.3675977,6.97196317 86.9601558,6.97160279 L79.3247382,6.96583682 C79.2592181,6.96583682 79.2133898,6.90060924 79.2327236,6.8375439 C79.4475436,6.14670817 79.5878926,5.57875975 79.6745367,5.17874532 C79.6838455,5.13730238 79.7178587,5.10811214 79.7597486,5.10414803 L86.0235407,4.52394692 C86.4864778,4.48250398 86.8312638,4.06735387 86.79009,3.60139111 C86.7485581,3.13542835 86.3364618,2.7883888 85.8735248,2.82983174 L72.7047029,4.05041632 C72.2421239,4.09185926 71.8969798,4.50700937 71.9381537,4.97261175 C71.9796855,5.43857451 72.3917818,5.78561406 72.8547188,5.74417112 L77.7604908,5.28974031 C77.827443,5.28325359 77.881148,5.34451706 77.8639624,5.41010501 C77.7561944,5.81876841 77.6076106,6.32365149 77.4089021,6.89736588 C77.3949388,6.93700695 77.3577033,6.96439532 77.3161715,6.96439532 L72.17911,6.96043122 C71.7716682,6.96043122 71.4379812,7.29557844 71.4376231,7.70568333 L71.4376231,7.91506025 C71.4372651,8.32516514 71.770236,8.66103311 72.1776779,8.66103311 L76.5596472,8.66463685 C76.6305378,8.66463685 76.6785142,8.73743227 76.6491555,8.80229947 C76.4647684,9.20952137 76.2588992,9.63223932 76.0293999,10.0650477 C76.0122143,10.097121 75.9785592,10.1176622 75.9423978,10.1176622 L71.3477568,10.1144189 C70.9471175,10.1140585 70.6191591,10.4438001 70.618801,10.8470579 L70.618801,11.0813006 C70.618443,11.4845584 70.9460434,11.8146604 71.3466827,11.8150208 L74.8070743,11.8175434 C74.8851255,11.8175434 74.933102,11.9051141 74.8894219,11.9703417 C73.8407425,13.5350828 72.4709072,15.1282935 70.6818149,16.5258214 C70.3377449,16.7946599 70.209211,17.2797224 70.4286854,17.6584748 C70.5908744,17.9388453 70.8758689,18.086238 71.1651598,18.0865984 C71.3463247,18.0865984 71.5296377,18.0285783 71.6846661,17.9082136 C72.3316322,17.4051324 72.9259675,16.879708 73.4759066,16.3416706 C73.5374883,16.2814882 73.6391697,16.3254538 73.6388117,16.411583 L73.6341573,22.7829841 L73.6341573,22.9815498 L73.6341573,22.989478 C73.6337992,23.3981414 73.9656961,23.7325679 74.3717058,23.7329282 L74.3795826,23.7329282 L74.3795826,23.7329282 L85.789387,23.7415772 C86.1996931,23.7419376 86.5358864,23.4042677 86.5362444,22.9912799 L86.5362444,22.989478 L86.5362444,22.989478 L86.5340962,14.3401569 L86.532306,14.1441138 L86.532306,14.1268159 C86.5326641,13.7181525 86.2007672,13.3833657 85.7947575,13.3833657 L85.5813696,13.3833657 L85.5018863,13.3833657 L76.191589,13.3761582 C76.1128216,13.3761582 76.0684255,13.287146 76.1135377,13.2222788 C76.4307552,12.7671272 76.7221943,12.3137775 76.988571,11.8661938 C77.0061147,11.8370036 77.0369055,11.8193453 77.0709187,11.8193453 L87.7854225,11.8272735 C88.1860617,11.8276338 88.5140202,11.4978922 88.5143782,11.0946344 L88.5143782,10.8603917 C88.5147363,10.457134 88.1871358,10.127032 87.7864966,10.1266716" id="Fill-26" fill="#FFFFFF"></path>
                <path d="M95.9824642,5.98216169 C96.2656685,6.26757739 96.7293216,6.26793776 97.0125259,5.98288244 L97.1772212,5.81747106 C97.4607836,5.53241573 97.4611416,5.0660926 97.1782953,4.7806769 L95.2513602,2.8379041 C94.9681559,2.5524884 94.5045028,2.55212803 94.2209405,2.83718336 L94.0562452,3.00259473 C93.7726828,3.28765006 93.7723248,3.75433356 94.0555291,4.03974927 L95.9824642,5.98216169 Z" id="Fill-28" fill="#FFFFFF"></path>
                <path d="M98.8551084,16.2077558 C99.2568217,15.9727924 99.3943065,15.4495303 99.1608688,15.0451914 L97.5285951,12.2537393 C97.5121255,12.2256302 97.5114095,12.190674 97.5257308,12.1611234 C98.581929,10.009334 98.8551084,8.28278523 98.8740841,8.15521306 C98.8776645,8.13142842 98.8758743,8.10836453 98.8773064,8.08457988 C98.8773064,8.07953466 98.8787386,8.0748498 98.8787386,8.06980458 L98.8787386,8.0532274 C98.8798127,8.02223529 98.8812448,7.99124318 98.8787386,7.96061145 L98.8790966,7.83592226 C98.8794546,7.4323041 98.5518542,7.1022021 98.1512149,7.10184172 L92.997684,7.09823799 C92.5970447,7.09787762 92.2690863,7.42761924 92.2687282,7.83087704 L92.2683702,8.06511972 C92.2680122,8.46801714 92.5956126,8.79847951 92.9962518,8.79883989 L96.8551345,8.80172287 C96.9195805,8.80172287 96.9671989,8.8622656 96.9492972,8.92497056 C96.4806317,10.5592638 95.2124778,13.8173993 92.1358979,16.2203689 C91.8283473,16.4607379 91.6908625,16.8755277 91.8423106,17.2362614 C91.9891042,17.5858236 92.3081119,17.7710555 92.631774,17.7710555 C92.8132968,17.7714159 92.9962518,17.7130354 93.1512802,17.593031 C93.7960982,17.0917517 94.3685934,16.5598406 94.8791488,16.0142353 C94.9392984,15.9497285 95.0456343,15.9918922 95.0452763,16.080544 L95.0402638,22.8815101 C95.0402638,23.2847679 95.3675062,23.6148699 95.7681455,23.6152303 L96.0008671,23.6155907 C96.4015063,23.615951 96.7298228,23.2862094 96.7298228,22.8825913 L96.7362674,14.6102207 C96.7362674,14.5107577 96.8669496,14.4750807 96.9170742,14.5608496 L97.700093,15.899997 C97.9335307,16.3043359 98.453395,16.4427193 98.8551084,16.2077558" id="Fill-30" fill="#FFFFFF"></path>
                <path d="M100.640226,15.7025845 L100.872948,15.7025845 C101.273587,15.7029448 101.601904,15.3732032 101.601904,14.9699454 L101.609065,5.43554737 C101.609423,5.16562772 101.826749,4.94688109 102.094916,4.94724147 L107.207273,4.95120557 C107.47544,4.95120557 107.692766,5.16995221 107.692766,5.44023223 L107.685605,14.9746303 C107.685247,15.3778881 108.012848,15.7083504 108.413487,15.7083504 L108.646209,15.7087108 C109.046848,15.7090712 109.374806,15.3793296 109.375164,14.9757114 L109.383041,4.22865698 L109.383399,3.98504459 L109.383399,3.97567488 C109.383757,3.57746232 109.060095,3.2516848 108.664468,3.25132443 L108.655517,3.25132443 L108.422796,3.25132443 L100.882257,3.24555845 L100.882257,3.24555845 L100.649535,3.24555845 L100.649177,3.24555845 L100.640226,3.24555845 C100.244958,3.24519808 99.9209376,3.57061522 99.9205796,3.96882779 L99.9205796,3.9781975 L99.9202215,4.22144952 L99.9123448,14.9688643 C99.9119868,15.3721221 100.239587,15.7022241 100.640226,15.7025845" id="Fill-32" fill="#FFFFFF"></path>
                <path d="M105.256708,7.13157253 C105.257066,6.65912305 104.876476,6.27568579 104.407453,6.27568579 C103.938071,6.27532542 103.557124,6.65768156 103.556766,7.13013103 L103.553901,11.0221633 C103.549605,17.0919319 102.007556,20.4156554 98.5536085,21.7991287 C98.117882,21.9735494 97.9048522,22.4708647 98.0784984,22.9101598 C98.2109707,23.2449467 98.5299783,23.4492784 98.8676037,23.4492784 C98.9725075,23.4496387 99.0792014,23.4298182 99.182315,23.3883753 C103.319389,21.7313785 105.248831,17.8022278 105.253843,11.0232445 L105.256708,7.13157253 Z" id="Fill-34" fill="#FFFFFF"></path>
                <path d="M64.7261689,16.9073847 C64.6148206,16.4486294 64.1551058,16.1675382 63.6989715,16.2796143 C63.2428371,16.39133 62.9639291,16.8540494 63.0749195,17.3128047 C63.0989077,17.4119074 63.6756993,19.7647851 64.7941952,21.8549506 C64.9477915,22.1418078 65.2403047,22.3046965 65.5424848,22.3050569 C65.6788955,22.3050569 65.8170963,22.2719026 65.9456303,22.2023505 C66.3588007,21.9781983 66.513471,21.459621 66.2907743,21.0437501 C65.2782562,19.1514296 64.7315394,16.9297278 64.7261689,16.9073847" id="Fill-36" fill="#FFFFFF"></path>
                <g id="Group-40" stroke-width="1" transform="translate(127.977154, 18.640636)">
                    <mask id="mask-4" fill="white">
                        <use xlink:href="#path-3"></use>
                    </mask>
                    <g id="Clip-39"></g>
                    <path d="M3.64485035,3.70647607 C3.61012112,3.6329599 2.78485442,1.88875283 1.57756622,0.436448179 C1.27646023,0.0739125766 0.74048442,0.0259829194 0.380302945,0.329056917 C0.0204795034,0.632491288 -0.0271389223,1.17160984 0.273967062,1.53414544 C1.33768392,2.81419162 2.10101087,4.42217756 2.10817153,4.43839437 C2.25353304,4.74651359 2.55857739,4.92706064 2.87651094,4.92742102 C2.99824225,4.92742102 3.1224798,4.90111376 3.24027275,4.84489552 C3.66418415,4.64308643 3.84534898,4.1335185 3.64485035,3.70647607" id="Fill-38" fill="#FFFFFF" mask="url(#mask-4)"></path>
                </g>
                <path d="M58.0532521,16.6853226 C57.5971177,16.7973987 57.3174938,17.2601181 57.4288421,17.7192338 C57.4413733,17.7711276 57.7435534,19.005046 58.331444,20.1031036 C58.4850403,20.3896004 58.7771954,20.5524892 59.0797335,20.5528495 C59.2161442,20.5528495 59.3543451,20.5200556 59.482879,20.4505035 C59.8956914,20.2263513 60.0503618,19.707774 59.8280231,19.2915428 C59.3461103,18.3913301 59.0825978,17.3239042 59.0800916,17.313093 C58.9683852,16.8546981 58.5086705,16.5732465 58.0532521,16.6853226" id="Fill-41" fill="#FFFFFF"></path>
                <g id="Group-45" stroke-width="1" transform="translate(48.000000, 15.757650)">
                    <mask id="mask-6" fill="white">
                        <use xlink:href="#path-5"></use>
                    </mask>
                    <g id="Clip-44"></g>
                    <path d="M2.82388005,0.189159978 C2.36881976,0.0770838622 1.90803093,0.356733591 1.79560848,0.815488881 C1.78987995,0.839633896 1.19733488,3.23323377 0.102469123,5.27222625 C-0.12094364,5.68809711 0.033010668,6.20703475 0.445823034,6.43154736 C0.573998947,6.50145979 0.712557825,6.53461414 0.848610469,6.53461414 C1.15114859,6.53497451 1.44366177,6.37244612 1.59761608,6.0859493 C2.79881772,3.84911184 3.42072152,1.32974167 3.44614188,1.2237919 C3.5582063,0.76503661 3.27965641,0.30195684 2.82388005,0.189159978" id="Fill-43" fill="#FFFFFF" mask="url(#mask-6)"></path>
                </g>
                <path d="M79.1765482,20.7731458 L81.8882922,18.9788468 C82.1417798,18.8109128 82.1421378,18.4364849 81.8886502,18.2681905 L79.1797705,16.4699275 C78.8990724,16.2836144 78.5249276,16.4861443 78.5245696,16.8245348 L78.5217053,20.4174573 C78.5217053,20.7562082 78.8954921,20.9590984 79.1765482,20.7731458" id="Fill-46" fill="#FFFFFF"></path>
                <path d="M50.1555393,33.6063708 C50.0381044,33.4654649 49.8956072,33.3050987 49.7280476,33.1245517 C50.5339805,32.6748057 51.0824875,32.2275824 51.3735685,31.7828816 C51.6650076,31.3381809 51.8164557,30.7442856 51.8279128,30.0011957 C51.8336413,29.9503831 51.8365056,29.8941648 51.8365056,29.8321806 L49.5039188,29.8303787 L49.4996224,35.447158 L48.903855,35.4467976 L48.9085094,29.2642322 L51.8454564,29.2663944 C51.8511849,28.8775516 51.8544072,28.4299679 51.8547653,27.9232829 L52.4591254,27.9236433 C52.4587674,28.4306886 52.4555451,28.8782723 52.4498166,29.2667548 L55.3112185,29.268917 L55.3072801,34.2943236 C55.3180211,34.9927272 54.9764574,35.3498572 54.2829469,35.366074 C53.8465044,35.3830115 53.4408527,35.3880567 53.0659918,35.3822908 C53.0326947,35.1794006 52.9850763,34.9628162 52.9238526,34.7318168 C53.3266401,34.7545204 53.7097357,34.7660523 54.0734975,34.7664127 C54.5153105,34.7891162 54.7279823,34.5837034 54.7118708,34.1501742 L54.7147351,29.8343429 L52.4322729,29.832541 C52.4269024,29.8945252 52.4240382,29.9507435 52.4236801,30.0015561 C52.401124,30.4970695 52.3395423,30.9248326 52.2382189,31.285206 L52.3137639,31.2178162 C53.0294724,31.8037833 53.7283534,32.4095709 54.4104068,33.0351791 L53.9571367,33.4824024 C53.2750833,32.8232795 52.6460188,32.239835 52.0703013,31.7327897 C51.7788622,32.3911919 51.1404889,33.0157189 50.1555393,33.6063708" id="Fill-48" fill="#FFFFFF"></path>
                <path d="M69.939774,31.4080573 C69.2183369,31.0022769 68.390564,30.5903701 67.4568132,30.1730578 L67.7593513,29.7424116 C68.5756672,30.1204433 69.4005759,30.5179351 70.2337193,30.9352474 L69.939774,31.4080573 Z M64.785885,33.2200146 L64.7851689,34.6139387 L68.670188,34.6164613 L68.6712621,33.2228975 L64.785885,33.2200146 Z M66.7511296,31.0761534 C66.0848297,31.717618 65.335108,32.2689893 64.5012485,32.7299068 L69.0407524,32.7335105 C68.1628548,32.3046662 67.3995279,31.7525742 66.7511296,31.0761534 L66.7511296,31.0761534 Z M63.2441937,30.1107132 L63.2452678,28.7845392 L66.5262847,28.7870618 C66.4707896,28.4717351 66.4063436,28.1845176 66.3340209,27.9254091 L66.9466158,27.8414421 C67.0246671,28.1567688 67.088755,28.4720955 67.1388797,28.7877826 L70.2355095,28.7899448 L70.2344354,30.1161188 L69.638668,30.115398 L69.6393841,29.2876204 L63.8324424,29.2832959 L63.8317263,30.1110736 L63.2441937,30.1107132 Z M63.5284721,31.4455361 C63.4335933,31.2876926 63.3218869,31.1269661 63.193353,30.9637169 C64.0046564,30.6264075 64.8220464,30.2188252 65.6444488,29.7409701 L65.9881607,30.1802652 C65.1321032,30.6527147 64.312207,31.0743516 63.5284721,31.4455361 L63.5284721,31.4455361 Z M64.1969203,35.5422605 L64.1987104,32.8902729 C63.8686037,33.0589277 63.5216695,33.2218164 63.1579077,33.3792996 C63.0462013,33.1933469 62.945594,33.0218092 62.8560856,32.8639657 C64.5069771,32.2343934 65.7776372,31.4134629 66.6677079,30.4004534 L67.2971304,30.5107276 C67.2187211,30.5838834 67.1489046,30.6541562 67.0869649,30.721546 C67.5567045,31.1835447 68.0683341,31.5810365 68.6218535,31.9136611 C69.1811015,32.2351142 69.8409568,32.5172865 70.6017775,32.7598178 C70.456058,32.9681136 70.3608211,33.1396513 70.316067,33.2747913 C69.9301071,33.1338853 69.5778024,32.9900963 69.2587947,32.8434244 L69.2570045,35.5462246 L68.6694719,35.5455039 L68.66983,35.1148577 L64.7848109,35.1119747 L64.7844529,35.5429812 L64.1969203,35.5422605 Z" id="Fill-50" fill="#FFFFFF"></path>
                <path d="M80.775325,29.008259 L80.7735348,31.3564518 L83.2994596,31.3582537 L83.3012497,29.0100609 L80.775325,29.008259 Z M78.5096904,29.0064571 L78.5100484,28.4576085 L85.4580422,28.4626537 L85.4576841,29.0118627 L83.9138447,29.0104212 L83.9120545,31.3586141 L85.799964,31.3600556 L85.7996059,31.9427793 L83.9113384,31.9413378 L83.9088322,35.4971418 L83.2962373,35.4967814 L83.2987435,31.9409774 L80.764584,31.9391756 C80.7470403,32.8570465 80.5898637,33.5759914 80.2930541,34.0967309 C79.9962446,34.6174704 79.4699356,35.1111819 78.7144854,35.5778654 C78.5748525,35.4030843 78.429491,35.2286636 78.2784009,35.0538825 C78.9726274,34.6657604 79.4552563,34.2509707 79.7270035,33.8091529 C79.9987508,33.3673352 80.1376677,32.7438893 80.1437543,31.9384548 L78.1466447,31.9370133 L78.1470027,31.3542896 L80.1527051,31.3557311 L80.1544953,29.0078986 L78.5096904,29.0064571 Z" id="Fill-52" fill="#FFFFFF"></path>
                <path d="M98.960225,33.0668559 C99.4643358,32.3125944 99.778331,31.2570609 99.9022105,29.9002551 L98.1399708,29.8988136 C98.1120442,29.9550319 98.0841176,30.0029616 98.056191,30.0422422 C98.1951079,31.3204866 98.4965719,32.3288112 98.960225,33.0668559 L98.960225,33.0668559 Z M100.737144,35.5173947 C99.9881385,35.0384585 99.3952354,34.5397018 98.9595089,34.0211245 C98.4722256,34.5782618 97.820247,35.1072899 97.0032151,35.6074881 C96.8800517,35.4388333 96.7486534,35.2582863 96.6090205,35.066928 C97.4597075,34.571775 98.1202789,34.0629278 98.5907347,33.5396657 C98.1156245,32.8239642 97.8030614,31.9114989 97.6526875,30.8022697 C97.4958689,31.1060644 97.3279513,31.387516 97.1485766,31.6466245 C97.0257712,31.4830149 96.8972373,31.3226488 96.7629748,31.1648053 C97.4070766,30.3038733 97.9029527,29.2086987 98.2509611,27.8803624 L98.8463704,27.9650502 C98.7117499,28.443626 98.5492028,28.9081473 98.3587291,29.3582536 L101.094103,29.3604158 L101.093745,29.9009759 L100.456088,29.9006155 C100.320751,31.4376079 99.939446,32.6592736 99.3121717,33.5652522 C99.7593553,34.1007671 100.362999,34.5602431 101.12382,34.9436803 C100.978101,35.1404442 100.849209,35.3318025 100.737144,35.5173947 L100.737144,35.5173947 Z M93.4744391,29.8361087 L93.4751552,29.3041976 L95.31294,29.3052787 C95.1786775,28.860578 95.0390446,28.4270488 94.8940411,28.0043309 L95.4815737,27.8864888 C95.5485259,28.095145 95.6240709,28.3257839 95.7078507,28.5794868 C95.7801734,28.8270633 95.8417552,29.0353591 95.8918798,29.2047346 L95.4472025,29.3056391 L97.1253045,29.3067202 L97.1249464,29.8389917 L94.9344988,29.8375502 C94.9230418,30.3269372 94.9087204,30.7774039 94.8918929,31.1885899 L96.6874298,31.1900314 C96.6817012,31.6012174 96.6702442,32.0851988 96.6527005,32.6426964 C96.6355149,33.200194 96.6158231,33.7209335 96.592909,34.2052753 C96.60365,34.9487256 96.2563577,35.3170271 95.5517482,35.3109008 C95.3111498,35.3109008 95.0845148,35.3105404 94.871843,35.3105404 C94.8553735,35.1303537 94.8217184,34.9361125 94.7715937,34.7274563 C94.9337828,34.7447542 95.1349975,34.7530428 95.3755958,34.7534032 C95.8231374,34.7872783 96.0472663,34.5847485 96.0476243,34.1458137 C96.0759089,33.689581 96.098465,33.2365917 96.1156506,32.786125 C96.1271077,32.3241264 96.1331942,31.969519 96.1331942,31.7219425 L94.8578797,31.7208614 C94.8009524,32.7061221 94.6913942,33.4636269 94.5288471,33.992655 C94.3827696,34.5216831 94.1335784,35.0395397 93.7809156,35.5462246 C93.6523817,35.4164902 93.5070202,35.2784672 93.3448311,35.1317952 C93.6806663,34.6366422 93.9187584,34.1270743 94.0591075,33.6038122 C94.1883575,33.0913613 94.2782239,32.359443 94.3294226,31.4076969 C94.3519787,30.8617313 94.3691643,30.3381088 94.3806214,29.8368294 L93.4744391,29.8361087 Z" id="Fill-54" fill="#FFFFFF"></path>
                <path d="M113.964357,31.6753462 L113.511445,31.2947919 C114.065681,30.7153116 114.561199,30.1131277 114.997999,29.4886007 L115.501036,29.8352798 C114.997283,30.4709784 114.484938,31.0843339 113.964357,31.6753462 L113.964357,31.6753462 Z M110.775713,31.6475975 C110.328529,31.0165837 109.867741,30.4107961 109.392272,29.830595 L109.845901,29.4929251 C110.343209,30.0677206 110.824048,30.6648593 111.287701,31.2847015 L110.775713,31.6475975 Z M109.040684,28.867317 L109.0414,28.3015308 L115.905256,28.306576 L115.90454,28.8727226 L112.757785,28.8702 L112.755637,32.189599 L116.254696,32.1921216 L116.254338,32.7748453 L112.755279,32.7723227 L112.753131,35.5933254 L112.140536,35.592965 L112.142684,32.7719624 L108.668687,32.7694397 L108.669045,32.1863556 L112.143042,32.1892386 L112.14519,28.8698396 L109.040684,28.867317 Z" id="Fill-56" fill="#FFFFFF"></path>
                <path d="M125.191239,32.603704 L125.189807,34.5295393 L129.654124,34.5327826 L129.655556,32.6069474 L125.191239,32.603704 Z M124.609793,35.5847125 L124.612657,32.0710722 L130.243088,32.0753967 L130.240582,35.589037 L129.653049,35.5886766 L129.653407,35.0564051 L125.189449,35.0531618 L125.189091,35.5850729 L124.609793,35.5847125 Z M130.797324,31.6198848 C130.596109,31.4054626 130.389524,31.1914008 130.176852,30.977339 C128.263522,31.0097727 126.526345,31.0645494 124.965678,31.14239 C124.613373,31.1647332 124.311193,31.1982479 124.059138,31.2429342 L123.799563,30.6515615 C124.034791,30.544891 124.258562,30.406868 124.471234,30.2382133 C125.310822,29.5405305 126.097421,28.7556373 126.831031,27.8835337 L127.46833,28.1880492 C126.723979,28.9758254 125.872934,29.7776561 124.915553,30.593181 C126.31976,30.5492155 127.908711,30.4998443 129.68205,30.4447072 C129.307547,30.0731623 128.919081,29.692608 128.516652,29.3037652 L128.969922,28.9660953 C129.803065,29.749547 130.582862,30.5074122 131.309311,31.2400512 L130.797324,31.6198848 Z" id="Fill-58" fill="#FFFFFF"></path>
                <g id="Group" stroke-width="1">
                    <g id="Group-5" transform="translate(0.000000, 0.092472)">
                        <path d="M30.9993013,37.4399376 L6.51507288,37.4399376 C2.99306413,37.4399376 0.137888058,34.5784763 0.137888058,31.0487146 L0.137888058,6.5105887 C0.137888058,2.98082691 2.99306413,0.119365705 6.51507288,0.119365705 L30.9993013,0.119365705 C34.5213101,0.119365705 37.3764862,2.98082691 37.3764862,6.5105887 L37.3764862,31.0487146 C37.3764862,34.5784763 34.5213101,37.4399376 30.9993013,37.4399376" id="Fill-1" fill="#FFFFFF"></path>
                        <path d="M30.9993013,37.4399376 L6.51507288,37.4399376 C2.99306413,37.4399376 0.137888058,34.5784763 0.137888058,31.0487146 L0.137888058,6.5105887 C0.137888058,2.98082691 2.99306413,0.119365705 6.51507288,0.119365705 L30.9993013,0.119365705 C34.5213101,0.119365705 37.3764862,2.98082691 37.3764862,6.5105887 L37.3764862,31.0487146 C37.3764862,34.5784763 34.5213101,37.4399376 30.9993013,37.4399376 Z" id="Stroke-3" stroke="#EEEEEE" stroke-width="0.5"></path>
                    </g>
                    <g id="Group-8" transform="translate(13.814306, 5.831660)">
                        <mask id="mask-8" fill="white">
                            <use xlink:href="#path-7"></use>
                        </mask>
                        <g id="Clip-7"></g>
                        <g id="Fill-6" mask="url(#mask-8)">
                            <use fill="url(#linearGradient-9)" xlink:href="#path-11"></use>
                            <use fill="url(#linearGradient-10)" xlink:href="#path-11"></use>
                        </g>
                    </g>
                    <path d="M6.12758208,27.4331126 C6.12758208,31.2229738 10.7057156,33.1144044 13.3708407,30.4253603 L23.3748012,20.3297479 C24.2239652,19.4724517 24.2239652,18.0894305 23.3748012,17.2325026 L13.3708407,7.13689024 C12.5062373,6.26448903 11.4409225,5.87434002 10.3954582,5.87434002 C8.21740775,5.87434002 6.12758208,7.56830147 6.12758208,10.1287695 L6.12758208,27.4331126 Z" id="Fill-9" fill="url(#linearGradient-12)"></path>
                    <g id="Group-13" transform="translate(13.814306, 7.673723)">
                        <mask id="mask-14" fill="white">
                            <use xlink:href="#path-13"></use>
                        </mask>
                        <g id="Clip-12"></g>
                        <path d="M-0.443686054,-0.536796145 L9.56027451,9.55881624 C10.4098061,10.4157441 10.4098061,11.7991337 9.56027451,12.6560616 L-0.443686054,22.7516739 C-3.10844354,25.440718 -7.68657703,23.5492874 -7.68657703,19.7594262 L-7.68657703,2.45508315 C-7.68657703,-1.33477799 -3.10844354,-3.22584022 -0.443686054,-0.536796145" id="Fill-11" fill="#FB3144" mask="url(#mask-14)"></path>
                    </g>
                </g>
            </g>
        </g>
    </g>
</svg>