<?xml version="1.0" encoding="UTF-8"?>
<svg width="106px" height="94px" viewBox="0 0 106 94" version="1.1" xmlns="http://www.w3.org/2000/svg" xmlns:xlink="http://www.w3.org/1999/xlink">
    <!-- Generator: Sketch 43.1 (39012) - http://www.bohemiancoding.com/sketch -->
    <title>通知</title>
    <desc>Created with Sketch.</desc>
    <defs>
        <polygon id="path-1" points="0 98.5714286 151.92757 98.5714286 151.92757 0.142857143 0 0.142857143"></polygon>
    </defs>
    <g id="规范文档" stroke="none" stroke-width="1" fill="none" fill-rule="evenodd">
        <g id="全局图标" transform="translate(-1312.000000, -1823.000000)">
            <g id="通知" transform="translate(1289.000000, 1822.000000)">
                <polygon id="Fill-1" fill="#3E3A39" points="75.123 77.6957143 77.9828131 77.6957143 77.9828131 49.5785714 75.123 49.5785714"></polygon>
                <g id="Group-27" transform="translate(0.000000, 1.285714)">
                    <path d="M77.5049383,49.9995714 C77.081686,50.7324286 76.0235551,50.7324286 75.6003028,49.9995714 L68.6295084,37.9367143 C68.2062561,37.2038571 68.7353215,36.2881429 69.5818262,36.2881429 L83.5248449,36.2881429 C84.3713495,36.2881429 84.898985,37.2038571 84.4757327,37.9367143 L77.5049383,49.9995714 Z" id="Fill-2" fill="#892EFF"></path>
                    <polygon id="Fill-4" fill="#3E3A39" points="110.4507 16.3932857 108.820607 14.0432857 120.85613 5.71042857 122.486223 8.06042857"></polygon>
                    <polygon id="Fill-6" fill="#3E3A39" points="113.166093 25.008 112.831494 22.1708571 127.373644 20.4565714 127.708242 23.2951429"></polygon>
                    <polygon id="Fill-8" fill="#3E3A39" points="128.045271 36.576 113.428766 35.7017143 113.598925 32.8502857 128.21543 33.7245714"></polygon>
                    <polygon id="Fill-10" fill="#3E3A39" points="41.5213402 16.3932857 29.4858168 8.06042857 31.1159103 5.71042857 43.1514336 14.0432857"></polygon>
                    <polygon id="Fill-12" fill="#3E3A39" points="38.8060907 25.008 24.2639411 23.2951429 24.5985393 20.4565714 39.1406888 22.1708571"></polygon>
                    <polygon id="Fill-14" fill="#3E3A39" points="23.9267692 36.576 23.7566103 33.7245714 38.373115 32.8502857 38.5432738 35.7017143"></polygon>
                    <path d="M64.474486,85.4571429 L87.531729,85.4571429" id="Fill-16" fill="#FFFFFF"></path>
                    <mask id="mask-2" fill="white">
                        <use xlink:href="#path-1"></use>
                    </mask>
                    <g id="Clip-19"></g>
                    <polygon id="Fill-18" fill="#3E3A39" mask="url(#mask-2)" points="64.474486 86.8857143 87.531729 86.8857143 87.531729 84.0285714 64.474486 84.0285714"></polygon>
                    <path d="M64.474486,91.7071429 L87.531729,91.7071429" id="Fill-20" fill="#FFFFFF" mask="url(#mask-2)"></path>
                    <polygon id="Fill-21" fill="#3E3A39" mask="url(#mask-2)" points="64.474486 93.1357143 87.531729 93.1357143 87.531729 90.2785714 64.474486 90.2785714"></polygon>
                    <path d="M91.1854262,59.3578571 L91.1854262,59.3421429 C90.9995383,58.5864286 90.7421551,57.8421429 90.4132766,57.115 C89.6983234,59.0721429 89.1692579,61.1278571 88.8546785,63.2435714 L88.8546785,63.2564286 L88.8546785,63.315 C88.8546785,64.2707143 88.754585,65.215 88.5400991,66.1135714 C87.2674822,71.8578571 82.1341178,76.1578571 75.9998187,76.1578571 C69.5795383,76.1578571 64.2459869,71.4278571 63.3022486,65.2721429 C63.2736505,65.0564286 63.2450523,64.8435714 63.2307533,64.6278571 C63.2450523,64.5707143 63.2307533,64.5135714 63.2164542,64.4435714 C62.9304729,61.9435714 62.3585103,59.5278571 61.5434636,57.2292857 C61.214585,57.9707143 60.9715009,58.7292857 60.771314,59.5007143 C60.4567346,60.7435714 60.2994449,62.0135714 60.2994449,63.315 C60.2994449,63.5864286 60.2994449,63.8564286 60.3137439,64.1135714 C60.3137439,64.1564286 60.328043,64.2007143 60.328043,64.2578571 C60.3852393,64.6992857 60.4424355,65.1435714 60.4710336,65.5992857 C60.4853327,65.6292857 60.4853327,65.6564286 60.4853327,65.6992857 C60.7284168,67.3435714 61.2288841,68.8864286 61.9438374,70.315 C62.301314,71.0435714 62.7159869,71.7278571 63.1878561,72.3707143 C66.0333701,76.3864286 70.7234636,79.015 75.9998187,79.015 C81.2332766,79.015 85.894772,76.4435714 88.740286,72.485 C89.2121551,71.8578571 89.626828,71.1721429 89.9843047,70.4707143 C90.6134636,69.2435714 91.0996318,67.9292857 91.3856131,66.5292857 C91.5858,65.5421429 91.7001925,64.5135714 91.7144916,63.4721429 L91.7144916,63.315 C91.7144916,61.9564286 91.5429028,60.6421429 91.1854262,59.3578571 M75.9426224,0.143571429 C59.6273888,0.143571429 46.3721551,13.3992857 46.3721551,29.685 C46.3721551,33.4992857 47.1157065,37.215 48.4884168,40.6292857 C48.8458935,41.515 49.2462673,42.385 49.6895383,43.2292857 C50.6475757,45.0864286 51.8058,46.8421429 53.1499121,48.4564286 C53.4072953,48.7421429 53.6503794,49.0292857 53.8934636,49.3278571 C55.1946785,50.8007143 56.6531832,52.1278571 58.2546785,53.3421429 L58.2689776,53.3421429 C59.026828,53.9135714 59.7989776,54.4435714 60.6140243,54.9278571 C59.4272019,52.215 57.8543047,49.685 55.9954262,47.4007143 C55.738043,47.085 55.4663607,46.7707143 55.1946785,46.4578571 C55.1803794,46.4278571 55.1517813,46.4007143 55.1231832,46.3707143 C51.3911271,41.7278571 49.2319682,35.8578571 49.2319682,29.685 C49.2319682,14.9721429 61.214585,3.00071429 75.9426224,3.00071429 C90.6706598,3.00071429 102.653277,14.9721429 102.653277,29.685 C102.653277,36.1578571 100.279632,42.3007143 96.1900991,47.0578571 C96.1472019,47.115 96.1043047,47.1721429 96.0471084,47.2292857 C94.1310336,49.5435714 92.5295383,52.115 91.3141178,54.9007143 C92.1291645,54.4135714 92.901314,53.8864286 93.6448654,53.3278571 C93.6448654,53.3278571 93.6591645,53.3278571 93.6591645,53.315 C95.3464542,52.0435714 96.8764542,50.615 98.2491645,49.0421429 C98.2920617,49.015 98.3206598,48.9707143 98.3492579,48.9278571 C99.8506598,47.185 101.137576,45.2721429 102.210006,43.2435714 L102.210006,43.2292857 C102.638978,42.385 103.025052,41.5292857 103.382529,40.6421429 C104.769538,37.215 105.51309,33.4992857 105.51309,29.685 C105.51309,13.3992857 92.2578561,0.143571429 75.9426224,0.143571429" id="Fill-22" fill="#3E3A39" mask="url(#mask-2)"></path>
                    <path d="M63.3022486,65.2715714 C63.2736505,65.0572857 63.2450523,64.843 63.2307533,64.6287143 C63.2450523,64.5715714 63.2307533,64.5144286 63.2164542,64.443 C62.9304729,61.943 62.3585103,59.5272857 61.5434636,57.2287143 C61.2717813,56.443 60.9572019,55.6858571 60.6140243,54.9287143 C59.4272019,52.2144286 57.8543047,49.6858571 55.9954262,47.4001429 C55.738043,47.0858571 55.4663607,46.7715714 55.1946785,46.4572857 C55.1803794,46.4287143 55.1517813,46.4001429 55.1231832,46.3715714 C53.1785103,44.1701429 50.9478561,42.243 48.4884168,40.6287143 C48.8458935,41.5144286 49.2462673,42.3844286 49.6895383,43.2287143 C50.6475757,45.0858571 51.8058,46.843 53.1499121,48.4558571 C53.4072953,48.743 53.6503794,49.0287143 53.8934636,49.3287143 C57.2537439,53.4858571 59.5415944,58.5572857 60.3137439,64.113 C60.3137439,64.1572857 60.328043,64.2001429 60.328043,64.2572857 C60.3852393,64.7001429 60.4424355,65.143 60.4710336,65.5987143 C60.4853327,65.6287143 60.4853327,65.6572857 60.4853327,65.7001429 C60.7284168,67.343 61.2288841,68.8858571 61.9438374,70.3144286 C62.301314,71.043 62.7159869,71.7287143 63.1878561,72.3715714 C63.3594449,71.0287143 63.4452393,69.6715714 63.4452393,68.2858571 C63.4452393,67.2701429 63.4023421,66.2715714 63.3022486,65.2715714" id="Fill-24" fill="#3E3A39" mask="url(#mask-2)"></path>
                    <path d="M96.1900991,47.0572857 C96.1472019,47.1144286 96.1043047,47.1715714 96.0471084,47.2287143 C94.1310336,49.543 92.5295383,52.1144286 91.3141178,54.9001429 C90.9709402,55.6287143 90.6849589,56.3572857 90.4132766,57.1144286 C89.6983234,59.0715714 89.1692579,61.1287143 88.8546785,63.243 L88.8546785,63.2572857 L88.8546785,63.3144286 C88.7116879,64.243 88.5972953,65.1715714 88.5400991,66.1144286 C88.4972019,66.8287143 88.4686037,67.5572857 88.4686037,68.2858571 C88.4686037,69.7001429 88.5543981,71.1144286 88.740286,72.4858571 C89.2121551,71.8572857 89.626828,71.1715714 89.9843047,70.4715714 C90.6134636,69.243 91.0996318,67.9287143 91.3856131,66.5287143 C91.4428093,65.5001429 91.5572019,64.4701429 91.7144916,63.4715714 C92.5867346,58.0415714 94.9031832,53.0987143 98.2491645,49.043 C98.2920617,49.0144286 98.3206598,48.9715714 98.3492579,48.9287143 C99.8506598,47.1858571 101.137576,45.2715714 102.210006,43.243 L102.210006,43.2287143 C102.638978,42.3844286 103.025052,41.5287143 103.382529,40.643 C100.680006,42.4144286 98.2634636,44.5858571 96.1900991,47.0572857" id="Fill-26" fill="#3E3A39" mask="url(#mask-2)"></path>
                </g>
            </g>
        </g>
    </g>
</svg>