<?xml version="1.0" encoding="UTF-8"?>
<svg width="18px" height="20px" viewBox="0 0 18 20" version="1.1" xmlns="http://www.w3.org/2000/svg" xmlns:xlink="http://www.w3.org/1999/xlink">
    <!-- Generator: Sketch 43.1 (39012) - http://www.bohemiancoding.com/sketch -->
    <title>通知中心顶部</title>
    <desc>Created with Sketch.</desc>
    <defs></defs>
    <g id="规范文档" stroke="none" stroke-width="1" fill="none" fill-rule="evenodd">
        <g id="全局图标" transform="translate(-76.000000, -701.000000)" stroke-width="1.4875" stroke="#975EFF">
            <g id="通知中心顶部" transform="translate(77.000000, 702.000000)">
                <g id="Group-3">
                    <path d="M8,-6.92779167e-14 L8,-6.92779167e-14 C5.03908832,-6.92779167e-14 2.6160629,2.44943772 2.6160629,5.44405011 L2.6160629,8.79719502 L0.290085368,12.3190234 C-0.466634349,13.4638902 0.345269454,15 1.70711122,15 L14.2928888,15 C15.6547305,15 16.4666343,13.4638902 15.7099146,12.3190234 L13.3839371,8.79719502 L13.3839371,5.44405011 C13.3839371,2.44943772 10.9609117,-6.92779167e-14 8,-6.92779167e-14" id="Fill-1"></path>
                </g>
                <path d="M11,15 C11,16.6567296 9.65692784,18 8.00044267,18 C6.34307216,18 5,16.6567296 5,15" id="Stroke-4"></path>
            </g>
        </g>
    </g>
</svg>