<?xml version="1.0" encoding="UTF-8"?>
<svg width="99px" height="103px" viewBox="0 0 99 103" version="1.1" xmlns="http://www.w3.org/2000/svg" xmlns:xlink="http://www.w3.org/1999/xlink">
    <!-- Generator: Sketch 43.1 (39012) - http://www.bohemiancoding.com/sketch -->
    <title>页1</title>
    <desc>Created with Sketch.</desc>
    <defs>
        <polygon id="path-1" points="40.0173673 38.1102412 0 38.1102412 0 0.605825055 40.0173673 0.605825055"></polygon>
        <polygon id="path-3" points="0.117351079 37.4713436 40.1352053 37.4713436 40.1352053 0.65900689 0.117351079 0.65900689"></polygon>
    </defs>
    <g id="规范文档" stroke="none" stroke-width="1" fill="none" fill-rule="evenodd">
        <g id="全局图标" transform="translate(-69.000000, -1576.000000)">
            <g id="页1" transform="translate(69.000000, 1578.000000)">
                <path d="M65.1279013,42.337079 C65.1279013,50.7795356 58.3108262,57.6221288 49.8998539,57.6221288 C41.4905048,57.6221288 34.6718065,50.7795356 34.6718065,42.337079 C34.6718065,33.8946224 41.4905048,27.0520292 49.8998539,27.0520292 C58.3108262,27.0520292 65.1279013,33.8946224 65.1279013,42.337079 Z" id="Stroke-1" stroke="#9B9B9B" stroke-width="3.24622626"></path>
                <path d="M72.044311,42.337079 C72.044311,54.613017 62.130336,64.5641025 49.9001785,64.5641025 C37.6700211,64.5641025 27.7560461,54.613017 27.7560461,42.337079 C27.7560461,30.0627702 37.6700211,20.1100555 49.9001785,20.1100555 C62.130336,20.1100555 72.044311,30.0627702 72.044311,42.337079 Z" id="Stroke-3" stroke="#9B9B9B" stroke-width="3.24622626"></path>
                <g id="Group-7" transform="translate(0.000000, 62.899468)">
                    <mask id="mask-2" fill="white">
                        <use xlink:href="#path-1"></use>
                    </mask>
                    <g id="Clip-6"></g>
                    <polygon id="Fill-5" fill="#C2C2C2" mask="url(#mask-2)" points="14.6497322 0.605825055 -0.000486933939 23.2825047 17.9949683 23.2825047 24.977601 38.1113816 40.0173673 14.1166882 29.6781367 16.5425504 23.5005681 4.4132394"></polygon>
                </g>
                <g id="Group-10" transform="translate(58.432073, 63.538365)">
                    <mask id="mask-4" fill="white">
                        <use xlink:href="#path-3"></use>
                    </mask>
                    <g id="Clip-9"></g>
                    <polygon id="Fill-8" fill="#C2C2C2" mask="url(#mask-4)" points="25.9329654 0.65900689 40.1352053 22.6432812 22.1413732 22.6432812 15.1571174 37.4721582 0.117351079 13.4774648 11.3979873 15.230472 17.3061191 4.17805481"></polygon>
                </g>
                <path d="M92.0796949,42.337079 C92.0796949,45.8349474 85.2398961,48.3862572 84.3796462,51.6136803 C83.4901802,54.9518883 88.1176757,60.5888817 86.4328843,63.5116465 C84.7237461,66.4767702 77.5317319,65.2597661 75.1343938,67.6677072 C72.7370557,70.07239 73.9495212,77.2913258 70.9954553,79.0068616 C68.0835903,80.6979597 62.4676189,76.0531422 59.1418601,76.9459377 C55.926473,77.8077786 53.3863009,84.6748096 49.8998539,84.6748096 C46.41503,84.6748096 43.8732349,77.8077786 40.6578478,76.9459377 C37.3320889,76.0531422 31.7177406,80.6979597 28.8042526,79.0068616 C25.8501867,77.2896966 27.0626522,70.0707608 24.6653141,67.666078 C22.267976,65.2581369 15.0775848,66.475141 13.3668236,63.5116465 C11.6820321,60.5872525 16.3095277,54.9518883 15.4216848,51.6120511 C14.5614348,48.3862572 7.7216361,45.8349474 7.7216361,42.337079 C7.7216361,38.8392105 14.5614348,36.2879008 15.4216848,33.0621069 C16.3095277,29.7222697 11.6836553,24.0852763 13.3684467,21.1625115 C15.0775848,18.1973878 22.2695991,19.4143919 24.6669372,17.0080799 C27.0642753,14.601768 25.8518098,7.3828322 28.8058757,5.66729634 C31.7177406,3.97619831 37.3337121,8.62101572 40.6594709,7.72822023 C43.8732349,6.86637933 46.41503,0.00097751331 49.8998539,0.00097751331 C53.3863009,0.00097751331 55.9280961,6.86637933 59.1434832,7.72984942 C62.469242,8.62101572 68.0835903,3.97619831 70.9954553,5.66729634 C73.9511443,7.38446138 72.7370557,14.6033972 75.1360169,17.0080799 C77.533355,19.416021 84.7237461,18.199017 86.4328843,21.1641407 C88.1192988,24.0869055 83.4901802,29.7222697 84.3796462,33.0621069 C85.2398961,36.2879008 92.0796949,38.8392105 92.0796949,42.337079 Z" id="Stroke-11" stroke="#9B9B9B" stroke-width="3.24622626"></path>
            </g>
        </g>
    </g>
</svg>