<?xml version="1.0" encoding="UTF-8"?>
<svg width="100px" height="104px" viewBox="0 0 100 104" version="1.1" xmlns="http://www.w3.org/2000/svg" xmlns:xlink="http://www.w3.org/1999/xlink">
    <!-- Generator: Sketch 43.1 (39012) - http://www.bohemiancoding.com/sketch -->
    <title>页1 copy 2</title>
    <desc>Created with Sketch.</desc>
    <defs>
        <linearGradient x1="75.5495653%" y1="0%" x2="33.8660515%" y2="86.3824718%" id="linearGradient-1">
            <stop stop-color="#955DFB" offset="0%"></stop>
            <stop stop-color="#5938FE" stop-opacity="0.814000226" offset="100%"></stop>
        </linearGradient>
        <polygon id="path-2" points="14.7962295 0.611764516 -0.000491803279 23.5107645 18.174918 23.5107645 25.227377 38.4850226 40.417541 14.2550871 29.974918 16.7047323 23.7355738 4.45650645"></polygon>
        <polygon id="path-3" points="0.11852459 37.8387097 40.5365574 37.8387097 40.5365574 0.665467742 0.11852459 0.665467742"></polygon>
        <linearGradient x1="31.5111222%" y1="0%" x2="74.8472863%" y2="77.8889592%" id="linearGradient-5">
            <stop stop-color="#955DFB" offset="0%"></stop>
            <stop stop-color="#5938FE" stop-opacity="0.814000226" offset="100%"></stop>
        </linearGradient>
        <polygon id="path-6" points="26.1922951 0.665467742 40.5365574 22.8652742 22.3627869 22.8652742 15.3086885 37.8395323 0.11852459 13.6095968 11.5119672 15.3797903 17.4791803 4.21901613"></polygon>
    </defs>
    <g id="规范文档" stroke="none" stroke-width="1" fill="none" fill-rule="evenodd">
        <g id="全局图标" transform="translate(-198.000000, -1576.000000)">
            <g id="页1-copy-2" transform="translate(198.000000, 1578.000000)">
                <path d="M65.7791803,42.7521484 C65.7791803,51.2773742 58.8939344,58.1870516 50.3988525,58.1870516 C41.9054098,58.1870516 35.0185246,51.2773742 35.0185246,42.7521484 C35.0185246,34.2269226 41.9054098,27.3172452 50.3988525,27.3172452 C58.8939344,27.3172452 65.7791803,34.2269226 65.7791803,42.7521484 Z" id="Stroke-1" stroke="#975EFF" stroke-width="3.27868852"></path>
                <path d="M72.7647541,42.7521484 C72.7647541,55.1484387 62.7516393,65.1970839 50.3991803,65.1970839 C38.0467213,65.1970839 28.0336066,55.1484387 28.0336066,42.7521484 C28.0336066,30.3575032 38.0467213,20.3072129 50.3991803,20.3072129 C62.7516393,20.3072129 72.7647541,30.3575032 72.7647541,42.7521484 Z" id="Stroke-3" stroke="#975EFF" stroke-width="3.27868852"></path>
                <g id="Group-7" transform="translate(0.000000, 63.516129)">
                    <g id="Fill-5">
                        <use fill="#975EFF" xlink:href="#path-2"></use>
                        <use fill="url(#linearGradient-1)" xlink:href="#path-2"></use>
                    </g>
                </g>
                <g id="Group-10" transform="translate(59.016393, 64.161290)">
                    <mask id="mask-4" fill="white">
                        <use xlink:href="#path-3"></use>
                    </mask>
                    <g id="Clip-9"></g>
                    <g id="Fill-8" mask="url(#mask-4)">
                        <use fill="#C2C2C2" xlink:href="#path-6"></use>
                        <use fill="url(#linearGradient-5)" xlink:href="#path-6"></use>
                    </g>
                </g>
                <path d="M93.0004918,42.7521484 C93.0004918,46.2843097 86.0922951,48.8606323 85.2234426,52.1196968 C84.325082,55.4906323 88.9988525,61.1828903 87.2972131,64.1343097 C85.5709836,67.1285032 78.3070492,65.8995677 75.8857377,68.3311161 C73.4644262,70.7593742 74.6890164,78.0490839 71.7054098,79.7814387 C68.7644262,81.4891161 63.0922951,76.7987613 59.7332787,77.7003097 C56.4857377,78.5706 53.9201639,85.5049548 50.3988525,85.5049548 C46.8791803,85.5049548 44.3119672,78.5706 41.0644262,77.7003097 C37.7054098,76.7987613 32.034918,81.4891161 29.0922951,79.7814387 C26.1086885,78.0474387 27.3332787,70.757729 24.9119672,68.329471 C22.4906557,65.8979226 15.2283607,67.1268581 13.5004918,64.1343097 C11.7988525,61.1812452 16.472623,55.4906323 15.5759016,52.1180516 C14.7070492,48.8606323 7.79885246,46.2843097 7.79885246,42.7521484 C7.79885246,39.2199871 14.7070492,36.6436645 15.5759016,33.3862452 C16.472623,30.0136645 11.8004918,24.3214065 13.5021311,21.3699871 C15.2283607,18.3757935 22.4922951,19.604729 24.9136066,17.1748258 C27.334918,14.7449226 26.1103279,7.4552129 29.0939344,5.72285806 C32.034918,4.01518065 37.7070492,8.70553548 41.0660656,7.8039871 C44.3119672,6.93369677 46.8791803,0.000987096774 50.3988525,0.000987096774 C53.9201639,0.000987096774 56.487377,6.93369677 59.734918,7.80563226 C63.0939344,8.70553548 68.7644262,4.01518065 71.7054098,5.72285806 C74.6906557,7.45685806 73.4644262,14.7465677 75.887377,17.1748258 C78.3086885,19.6063742 85.5709836,18.3774387 87.2972131,21.3716323 C89.0004918,24.3230516 84.325082,30.0136645 85.2234426,33.3862452 C86.0922951,36.6436645 93.0004918,39.2199871 93.0004918,42.7521484 Z" id="Stroke-11" stroke="#975EFF" stroke-width="3.27868852"></path>
            </g>
        </g>
    </g>
</svg>