<svg xmlns="http://www.w3.org/2000/svg" xmlns:xlink="http://www.w3.org/1999/xlink" width="100" height="104" viewBox="0 0 100 104">
    <defs>
        <linearGradient id="b" x1="75.55%" x2="33.866%" y1="0%" y2="86.382%">
            <stop offset="0%" stop-color="#955DFB"/>
            <stop offset="100%" stop-color="#5938FE" stop-opacity=".814"/>
        </linearGradient>
        <path id="a" d="M14.796.612L0 23.51h18.175l7.052 14.974 15.19-24.23-10.442 2.45-6.24-12.248z"/>
        <path id="c" d="M.119 37.839h40.418V.665H.119z"/>
        <linearGradient id="f" x1="31.511%" x2="74.847%" y1="0%" y2="77.889%">
            <stop offset="0%" stop-color="#955DFB"/>
            <stop offset="100%" stop-color="#5938FE" stop-opacity=".814"/>
        </linearGradient>
        <path id="e" d="M26.192.665l14.345 22.2H22.363L15.309 37.84.119 13.61l11.393 1.77 5.967-11.161z"/>
    </defs>
    <g fill="none" fill-rule="evenodd">
        <path stroke="#975EFF" stroke-width="3.279" d="M65.78 44.752c0 8.525-6.886 15.435-15.381 15.435-8.494 0-15.38-6.91-15.38-15.435s6.886-15.435 15.38-15.435c8.495 0 15.38 6.91 15.38 15.435z"/>
        <path stroke="#975EFF" stroke-width="3.279" d="M72.765 44.752c0 12.396-10.013 22.445-22.366 22.445-12.352 0-22.365-10.049-22.365-22.445 0-12.394 10.013-22.445 22.365-22.445 12.353 0 22.366 10.05 22.366 22.445z"/>
        <g transform="translate(0 65.516)">
            <use fill="#975EFF" xlink:href="#a"/>
            <use fill="url(#b)" xlink:href="#a"/>
        </g>
        <g transform="translate(59.016 66.161)">
            <mask id="d" fill="#fff">
                <use xlink:href="#c"/>
            </mask>
            <g mask="url(#d)">
                <use fill="#C2C2C2" xlink:href="#e"/>
                <use fill="url(#f)" xlink:href="#e"/>
            </g>
        </g>
        <path stroke="#975EFF" stroke-width="3.279" d="M93 44.752c0 3.532-6.908 6.109-7.777 9.368-.898 3.37 3.776 9.063 2.074 12.014-1.726 2.995-8.99 1.766-11.411 4.197-2.422 2.428-1.197 9.718-4.18 11.45-2.942 1.708-8.614-2.982-11.973-2.08-3.247.87-5.813 7.804-9.334 7.804-3.52 0-6.087-6.934-9.335-7.805-3.359-.901-9.03 3.79-11.972 2.081-2.983-1.734-1.759-9.023-4.18-11.452-2.421-2.431-9.684-1.202-11.412-4.195-1.701-2.953 2.973-8.643 2.076-12.016-.869-3.257-7.777-5.834-7.777-9.366s6.908-6.108 7.777-9.366c.897-3.372-3.776-9.065-2.074-12.016 1.726-2.994 8.99-1.765 11.412-4.195 2.42-2.43 1.196-9.72 4.18-11.452 2.94-1.708 8.613 2.983 11.972 2.081 3.246-.87 5.813-7.803 9.333-7.803 3.521 0 6.088 6.933 9.336 7.805 3.359.9 9.03-3.79 11.97-2.083 2.986 1.734 1.76 9.024 4.182 11.452 2.422 2.431 9.684 1.202 11.41 4.197 1.703 2.951-2.972 8.642-2.074 12.014.87 3.258 7.777 5.834 7.777 9.366z"/>
    </g>
</svg>
