<svg xmlns="http://www.w3.org/2000/svg" width="19" height="15" viewBox="0 0 19 15">
    <g fill="none" fill-rule="evenodd" stroke="#FFF" stroke-width="1.4">
        <path d="M9.988 14H2.012C1.453 14 1 13.562 1 13.022V1.978C1 1.438 1.453 1 2.012 1h7.976c.559 0 1.012.438 1.012.978v11.044c0 .54-.453.978-1.012.978z"/>
        <path d="M17.16 3a.887.887 0 0 0-.462.13l-5.326 3.237a.725.725 0 0 0 0 1.266l5.326 3.237c.146.09.306.13.462.13.436 0 .84-.315.84-.763V3.763c0-.448-.404-.763-.84-.763"/>
    </g>
</svg>
