<svg xmlns="http://www.w3.org/2000/svg" width="17" height="17" viewBox="0 0 17 17">
    <g fill="none" fill-rule="evenodd" stroke="#FFF" stroke-width="1.4">
        <path d="M9.813 15.448h-2.4c-.33 0-.6-.27-.6-.6V1.6c0-.33.27-.6.6-.6h2.4c.33 0 .6.27.6.6v13.248c0 .33-.27.6-.6.6zM15.625 15.448h-2.4c-.33 0-.6-.27-.6-.6V5.324c0-.33.27-.6.6-.6h2.4c.33 0 .6.27.6.6v9.524c0 .33-.27.6-.6.6zM4 15.448H1.6c-.33 0-.6-.27-.6-.6V8.502c0-.33.27-.6.6-.6H4c.33 0 .6.27.6.6v6.346c0 .33-.27.6-.6.6z"/>
    </g>
</svg>
