<svg xmlns="http://www.w3.org/2000/svg" width="195" height="126" viewBox="0 0 195 126">
    <path fill="#DEDEDE" fill-rule="evenodd" d="M86 126H33v-.056C14.6 124.907 0 109.659 0 91c0-17.299 12.55-31.666 29.041-34.495-.027-.498-.041-1-.041-1.505 0-14.912 12.088-27 27-27a26.874 26.874 0 0 1 14.393 4.152C76.61 13.472 94.231 0 115 0c25.957 0 47 21.043 47 47 0 3.084-.297 6.1-.864 9.018C179.94 56.618 195 72.05 195 91c0 18.659-14.6 33.907-33 34.944V126h-54V92.572h14.261c1.098 0 1.386-.653.637-1.458L97.96 64.304a.92.92 0 0 0-1.366 0l-25.167 26.81c-.761.812-.476 1.458.625 1.458H86V126z"/>
</svg>
