<svg width="195px" height="126px" viewBox="0 0 195 126" version="1.1" xmlns="http://www.w3.org/2000/svg" xmlns:xlink="http://www.w3.org/1999/xlink">
    <!-- Generator: Sketch 43.1 (39012) - http://www.bohemiancoding.com/sketch -->
    <title>Group 8</title>
    <desc>Created with Sketch.</desc>
    <defs>
        <linearGradient x1="54.2548077%" y1="-5.60515873%" x2="60.7271635%" y2="100%" id="linearGradient-1">
            <stop stop-color="#955DFB" offset="0%"></stop>
            <stop stop-color="#7F37FE" offset="6.27935651%"></stop>
            <stop stop-color="#5938FE" stop-opacity="0.814000226" offset="100%"></stop>
        </linearGradient>
    </defs>
    <g id="规范文档" stroke="none" stroke-width="1" fill="none" fill-rule="evenodd">
        <g id="全局图标" transform="translate(-631.000000, -1555.000000)" fill="url(#linearGradient-1)">
            <g id="Group-8" transform="translate(631.000000, 1555.000000)">
                <path d="M86,126 L33,126 L33,125.943814 C14.6006223,124.907279 0,109.658719 0,91 C0,73.7013498 12.5496662,59.3338312 29.0412408,56.5052019 C29.0138693,56.0069465 29,55.5050929 29,55 C29,40.0883118 41.0883118,28 56,28 C61.291303,28 66.2271053,29.5220793 70.3934551,32.152286 C76.6086556,13.4710826 94.2311578,0 115,0 C140.957383,0 162,21.0426168 162,47 C162,50.0844417 161.702881,53.0994875 161.135701,56.0180775 C179.940035,56.6175397 195,72.0500482 195,91 C195,109.658719 180.399378,124.907279 162,125.943814 L162,126 L108,126 L108,92.5722378 L122.261123,92.5722378 C123.358792,92.5722378 123.647074,91.9194741 122.8981,91.1142492 L97.9603861,64.3035998 C97.5830475,63.8979214 96.9727583,63.8996797 96.593614,64.3035998 L71.4274823,91.1142492 C70.6656435,91.9258714 70.9512715,92.5722378 72.0520379,92.5722378 L86,92.5722378 L86,126 Z" id="上传-彩色"></path>
            </g>
        </g>
    </g>
</svg>