<?xml version="1.0" encoding="UTF-8"?>
<svg width="103px" height="101px" viewBox="0 0 103 101" version="1.1" xmlns="http://www.w3.org/2000/svg" xmlns:xlink="http://www.w3.org/1999/xlink">
    <!-- Generator: Sketch 43.1 (39012) - http://www.bohemiancoding.com/sketch -->
    <title>关注</title>
    <desc>Created with Sketch.</desc>
    <defs>
        <linearGradient x1="59.3622446%" y1="-2.47510634%" x2="60.7271635%" y2="100%" id="linearGradient-1">
            <stop stop-color="#955DFB" offset="0%"></stop>
            <stop stop-color="#7F37FE" offset="6.27935651%"></stop>
            <stop stop-color="#5938FE" stop-opacity="0.814000226" offset="100%"></stop>
        </linearGradient>
        <polygon id="path-2" points="43.3293548 28.38317 50.0212903 35.5482367 56.7148387 28.38317 64.9632258 28.38317 68.6148387 31.46292 70.1003226 56.35312 61.36 56.35312 59.8567742 62.13432 38.943871 62.13432 38.943871 56.9044033 30.6277419 56.7669867 30.6277419 32.97127 36.9116129 28.38317"></polygon>
    </defs>
    <g id="规范文档" stroke="none" stroke-width="1" fill="none" fill-rule="evenodd">
        <g id="全局图标" transform="translate(-999.000000, -1822.000000)">
            <g id="关注" transform="translate(1001.000000, 1824.000000)">
                <g id="Fill-1">
                    <use fill="#892EFF" xlink:href="#path-2"></use>
                    <use fill="url(#linearGradient-1)" xlink:href="#path-2"></use>
                </g>
                <g id="Group-40">
                    <path d="M70.0998387,62.1341583 L29.945,62.1341583 L29.945,36.3515583 C29.945,31.5355083 33.8401613,27.632875 38.645,27.632875 L61.4272581,27.632875 C66.2175806,27.632875 70.0998387,31.5241917 70.0998387,36.3256917 L70.0998387,62.1341583 Z" id="Stroke-2" stroke="#3E3A39" stroke-width="3.22580645" stroke-linecap="round" stroke-linejoin="round"></path>
                    <path d="M60.3641935,10.0582533 C60.3641935,15.61312 55.8996774,20.1171533 50.3932258,20.1171533 C44.8867742,20.1171533 40.423871,15.61312 40.423871,10.0582533 C40.423871,4.50338667 44.8867742,-0.000646666667 50.3932258,-0.000646666667 C55.8996774,-0.000646666667 60.3641935,4.50338667 60.3641935,10.0582533 Z" id="Stroke-4" stroke="#3E3A39" stroke-width="3.22580645" stroke-linecap="round" stroke-linejoin="round"></path>
                    <path d="M38.9443548,57.59375 L38.9443548,97" id="Stroke-6" stroke="#3E3A39" stroke-width="3.22580645" stroke-linecap="round" stroke-linejoin="round"></path>
                    <path d="M61.2225806,57.59375 L61.2225806,97" id="Stroke-8" stroke="#3E3A39" stroke-width="3.22580645" stroke-linecap="round" stroke-linejoin="round"></path>
                    <path d="M50.0219355,68.3411883 L50.0219355,96.9998383" id="Stroke-10" stroke="#3E3A39" stroke-width="3.22580645" stroke-linecap="round" stroke-linejoin="round"></path>
                    <path d="M90.806129,25.591025 C90.806129,30.1532583 87.14,33.8521917 82.6174194,33.8521917 C78.0948387,33.8521917 74.4287097,30.1532583 74.4287097,25.591025 C74.4287097,21.0287917 78.0948387,17.3298583 82.6174194,17.3298583 C87.14,17.3298583 90.806129,21.0287917 90.806129,25.591025 Z" id="Stroke-12" stroke="#3E3A39" stroke-width="3.22580645" stroke-linecap="round" stroke-linejoin="round"></path>
                    <path d="M76.1103226,39.9602817 L91.7022581,40.0249483 C95.6248387,40.0249483 98.8022581,43.232415 98.8022581,47.1883983 L98.8022581,68.3634983 L68.1877419,68.3634983" id="Stroke-14" stroke="#3E3A39" stroke-width="3.22580645" stroke-linecap="round" stroke-linejoin="round"></path>
                    <path d="M73.2122581,64.6341717 L73.2122581,96.9998383" id="Stroke-16" stroke="#3E3A39" stroke-width="3.22580645" stroke-linecap="round" stroke-linejoin="round"></path>
                    <path d="M90.806129,64.6341717 L90.806129,96.9998383" id="Stroke-18" stroke="#3E3A39" stroke-width="3.22580645" stroke-linecap="round" stroke-linejoin="round"></path>
                    <path d="M82.3116129,73.4611717 L82.3116129,96.9998383" id="Stroke-20" stroke="#3E3A39" stroke-width="3.22580645" stroke-linecap="round" stroke-linejoin="round"></path>
                    <path d="M24.9858065,25.591025 C24.9858065,30.1532583 21.3196774,33.8521917 16.7954839,33.8521917 C12.2729032,33.8521917 8.60677419,30.1532583 8.60677419,25.591025 C8.60677419,21.0287917 12.2729032,17.3298583 16.7954839,17.3298583 C21.3196774,17.3298583 24.9858065,21.0287917 24.9858065,25.591025 Z" id="Stroke-22" stroke="#3E3A39" stroke-width="3.22580645" stroke-linecap="round" stroke-linejoin="round"></path>
                    <path d="M31.8562903,68.3633367 L-0.000161290323,68.3633367 L-0.000161290323,47.21087 C-0.000161290323,43.2419533 3.19016129,40.0247867 7.12241935,40.0247867 L24.345,40.0247867" id="Stroke-24" stroke="#3E3A39" stroke-width="3.22580645" stroke-linecap="round" stroke-linejoin="round"></path>
                    <path d="M7.39193548,64.6341717 L7.39193548,96.9998383" id="Stroke-26" stroke="#3E3A39" stroke-width="3.22580645" stroke-linecap="round" stroke-linejoin="round"></path>
                    <path d="M26.623871,64.6341717 L26.623871,96.9998383" id="Stroke-28" stroke="#3E3A39" stroke-width="3.22580645" stroke-linecap="round" stroke-linejoin="round"></path>
                    <path d="M16.4912903,73.4611717 L16.4912903,96.9998383" id="Stroke-30" stroke="#3E3A39" stroke-width="3.22580645" stroke-linecap="round" stroke-linejoin="round"></path>
                    <path d="M15.9446774,48.0002883 L15.9446774,48.0002883 C15.9446774,48.942805 16.701129,49.7058717 17.635,49.7058717 C18.568871,49.7058717 19.3253226,48.942805 19.3253226,48.0002883 C19.3253226,47.0577717 18.568871,46.294705 17.635,46.294705 C16.701129,46.294705 15.9446774,47.0577717 15.9446774,48.0002883" id="Fill-32" fill="#231815"></path>
                    <path d="M80.9270968,48.0002883 L80.9270968,48.0002883 C80.9270968,48.942805 81.6835484,49.7058717 82.6174194,49.7058717 C83.5512903,49.7058717 84.3077419,48.942805 84.3077419,48.0002883 C84.3077419,47.0577717 83.5512903,46.294705 82.6174194,46.294705 C81.6835484,46.294705 80.9270968,47.0577717 80.9270968,48.0002883" id="Fill-34" fill="#231815"></path>
                    <path d="M48.7037097,39.4583067 L48.7037097,39.4583067 C48.7037097,40.3992067 49.4617742,41.16389 50.3940323,41.16389 C51.3279032,41.16389 52.0843548,40.3992067 52.0843548,39.4583067 C52.0843548,38.51579 51.3279032,37.7527233 50.3940323,37.7527233 C49.4617742,37.7527233 48.7037097,38.51579 48.7037097,39.4583067" id="Fill-36" fill="#231815"></path>
                    <path d="M48.7037097,45.258745 L48.7037097,45.258745 C48.7037097,46.2012617 49.4617742,46.9643283 50.3940323,46.9643283 C51.3279032,46.9643283 52.0843548,46.2012617 52.0843548,45.258745 C52.0843548,44.3162283 51.3279032,43.5531617 50.3940323,43.5531617 C49.4617742,43.5531617 48.7037097,44.3162283 48.7037097,45.258745" id="Fill-38" fill="#231815"></path>
                </g>
            </g>
        </g>
    </g>
</svg>