<?xml version="1.0" encoding="UTF-8"?>
<svg width="102px" height="97px" viewBox="0 0 102 97" version="1.1" xmlns="http://www.w3.org/2000/svg" xmlns:xlink="http://www.w3.org/1999/xlink">
    <!-- Generator: Sketch 43.1 (39012) - http://www.bohemiancoding.com/sketch -->
    <title>分享</title>
    <desc>Created with Sketch.</desc>
    <defs>
        <linearGradient x1="54.2548077%" y1="-5.60515873%" x2="60.7271635%" y2="100%" id="linearGradient-1">
            <stop stop-color="#955DFB" offset="0%"></stop>
            <stop stop-color="#7F37FE" offset="6.27935651%"></stop>
            <stop stop-color="#5938FE" stop-opacity="0.814000226" offset="100%"></stop>
        </linearGradient>
        <path d="M64.1970492,30.1282672 C60.8019672,34.2574914 55.6740984,36.8929224 49.9183607,36.8929224 C43.8298361,36.8929224 38.4232787,33.9249914 35.0659016,29.373181 C37.7790164,24.1940431 43.2019672,20.6544741 49.4380328,20.6544741 C56.0052459,20.6544741 61.6495082,24.5445603 64.1970492,30.1282672" id="path-2"></path>
        <path d="M33.3296721,86.5969224 C29.9362295,90.7261466 24.8067213,93.3615776 19.0509836,93.3615776 C12.962459,93.3615776 7.55754098,90.3936466 4.19852459,85.8418362 C6.91163934,80.6626983 12.3345902,77.1231293 18.5706557,77.1231293 C25.1395082,77.1231293 30.7837705,81.0132155 33.3296721,86.5969224" id="path-3"></path>
        <path d="M94.8498361,86.5969224 C91.4547541,90.7261466 86.3268852,93.3615776 80.5695082,93.3615776 C74.482623,93.3615776 69.0760656,90.3936466 65.7186885,85.8418362 C68.4318033,80.6626983 73.8547541,77.1231293 80.0908197,77.1231293 C86.6580328,77.1231293 92.3022951,81.0132155 94.8498361,86.5969224" id="path-4"></path>
    </defs>
    <g id="规范文档" stroke="none" stroke-width="1" fill="none" fill-rule="evenodd">
        <g id="全局图标" transform="translate(-852.000000, -1824.000000)">
            <g id="分享" transform="translate(853.000000, 1825.000000)">
                <polygon id="Fill-1" fill="#3E3A39" points="53.2372131 76.5475172 50.3027869 73.6156207 47.3667213 76.5475172 50.3027869 79.4794138"></polygon>
                <polygon id="Fill-2" fill="#3E3A39" points="71.3788525 45.4970948 68.4427869 42.5651983 65.5083607 45.4970948 68.4427869 48.4306293"></polygon>
                <polygon id="Fill-3" fill="#3E3A39" points="34.4198361 45.4970948 31.4854098 42.5651983 28.5493443 45.4970948 31.4854098 48.4306293"></polygon>
                <g id="Group-28" transform="translate(0.000000, 0.553905)">
                    <path d="M55.6513115,11.6504397 C55.6513115,15.0753534 52.872623,17.8516466 49.4447541,17.8516466 C46.0152459,17.8516466 43.2365574,15.0753534 43.2365574,11.6504397 C43.2365574,8.22552586 46.0152459,5.44923276 49.4447541,5.44923276 C52.872623,5.44923276 55.6513115,8.22552586 55.6513115,11.6504397" id="Fill-4" fill="#892EFF"></path>
                    <g id="Fill-6">
                        <use fill="#892EFF" xlink:href="#path-2"></use>
                        <use fill="url(#linearGradient-1)" xlink:href="#path-2"></use>
                    </g>
                    <path d="M68.3467213,18.4788103 C68.3467213,22.9028621 66.7795082,26.9763966 64.197541,30.1277759 C60.8008197,34.2586379 55.6745902,36.892431 49.9188525,36.892431 C43.8303279,36.892431 38.4237705,33.9261379 35.0663934,29.3726897 C32.8352459,26.3310517 31.5057377,22.5523448 31.5057377,18.4788103 C31.5057377,8.32363793 39.7532787,0.0848448276 49.9188525,0.0848448276 C60.1008197,0.0848448276 68.3467213,8.32363793 68.3467213,18.4788103 Z" id="Stroke-8" stroke="#3E3A39" stroke-width="3.27868852" stroke-linecap="round" stroke-linejoin="round"></path>
                    <path d="M24.7839344,68.118931 C24.7839344,71.5438448 22.0052459,74.3201379 18.577377,74.3201379 C15.1495082,74.3201379 12.3708197,71.5438448 12.3708197,68.118931 C12.3708197,64.6940172 15.1495082,61.9177241 18.577377,61.9177241 C22.0052459,61.9177241 24.7839344,64.6940172 24.7839344,68.118931" id="Fill-10" fill="#892EFF"></path>
                    <g id="Fill-12">
                        <use fill="#892EFF" xlink:href="#path-3"></use>
                        <use fill="url(#linearGradient-1)" xlink:href="#path-3"></use>
                    </g>
                    <path d="M37.4808197,74.9474655 C37.4808197,79.3715172 35.9119672,83.4450517 33.33,86.596431 C29.934918,90.7272931 24.8070492,93.3610862 19.0513115,93.3610862 C12.9627869,93.3610862 7.55786885,90.3947931 4.19885246,85.8413448 C1.96770492,82.7997069 0.638196721,79.021 0.638196721,74.9474655 C0.638196721,64.7922931 8.8857377,56.5535 19.0513115,56.5535 C29.234918,56.5535 37.4808197,64.7922931 37.4808197,74.9474655 Z" id="Stroke-14" stroke="#3E3A39" stroke-width="3.27868852" stroke-linecap="round" stroke-linejoin="round"></path>
                    <path d="M86.3042623,68.118931 C86.3042623,71.5438448 83.5255738,74.3201379 80.0960656,74.3201379 C76.6681967,74.3201379 73.8895082,71.5438448 73.8895082,68.118931 C73.8895082,64.6940172 76.6681967,61.9177241 80.0960656,61.9177241 C83.5255738,61.9177241 86.3042623,64.6940172 86.3042623,68.118931" id="Fill-16" fill="#892EFF"></path>
                    <g id="Fill-18">
                        <use fill="#892EFF" xlink:href="#path-4"></use>
                        <use fill="url(#linearGradient-1)" xlink:href="#path-4"></use>
                    </g>
                    <path d="M98.9995082,74.9474655 C98.9995082,79.3715172 97.4322951,83.4450517 94.8503279,86.596431 C91.4536066,90.7272931 86.327377,93.3610862 80.57,93.3610862 C74.4831148,93.3610862 69.0765574,90.3947931 65.7191803,85.8413448 C63.4880328,82.7997069 62.1585246,79.021 62.1585246,74.9474655 C62.1585246,64.7922931 70.4060656,56.5535 80.57,56.5535 C90.7536066,56.5535 98.9995082,64.7922931 98.9995082,74.9474655 Z" id="Stroke-20" stroke="#3E3A39" stroke-width="3.27868852" stroke-linecap="round" stroke-linejoin="round"></path>
                    <path d="M49.9632787,52.9937845 L49.9632787,36.8929224" id="Stroke-22" stroke="#3E3A39" stroke-width="3.27868852" stroke-linecap="round" stroke-linejoin="round"></path>
                    <path d="M36.9109836,63.7635086 L49.6716393,53.9310086" id="Stroke-24" stroke="#3E3A39" stroke-width="3.27868852" stroke-linecap="round" stroke-linejoin="round"></path>
                    <path d="M63.0636066,64.059319 L50.3029508,54.225181" id="Stroke-26" stroke="#3E3A39" stroke-width="3.27868852" stroke-linecap="round" stroke-linejoin="round"></path>
                </g>
            </g>
        </g>
    </g>
</svg>