<svg xmlns="http://www.w3.org/2000/svg" xmlns:xlink="http://www.w3.org/1999/xlink" width="100" height="100" viewBox="0 0 100 100">
    <defs>
        <linearGradient id="b" x1="39.199%" x2="60.727%" y1="-36.407%" y2="100%">
            <stop offset="0%" stop-color="#955DFB"/>
            <stop offset="100%" stop-color="#5938FE" stop-opacity=".814"/>
        </linearGradient>
        <path id="a" d="M49.947 55.44H49.982l-.017-.018-.018.019zm25.888.382h.007l-.088.088-.014.014L49.705 81.98l-25.6-26.14h.007a17.85 17.85 0 0 1-5.177-12.589c0-9.893 8.02-17.915 17.914-17.915 5.186 0 9.845 2.22 13.116 5.744 3.27-3.524 7.928-5.744 13.115-5.744 9.894 0 17.913 8.022 17.913 17.915 0 4.898-1.971 9.335-5.158 12.57z"/>
        <path id="c" d="M0 99.986h100V0H0z"/>
    </defs>
    <g fill="none" fill-rule="evenodd">
        <use fill="#892EFF" xlink:href="#a"/>
        <use fill="url(#b)" xlink:href="#a"/>
        <mask id="d" fill="#fff">
            <use xlink:href="#c"/>
        </mask>
        <path fill="#3E3A39" d="M48.037 99.986h3.681v-8.288h-3.681zM32.374 97.23l-3.333-1.569 3.53-7.498 3.332 1.568zM16.04 86.871l-2.767-2.431 5.472-6.224 2.767 2.432zM4.556 71.054l-1.363-3.422 7.7-3.066 1.361 3.421zM0 52.196h8.287v-3.683H0zM3.202 32.78l1.248-3.466 7.797 2.81-1.25 3.465zM13.065 16.303l2.431-2.767 6.223 5.472-2.431 2.765zM28.65 4.497l3.361-1.504 3.384 7.565-3.362 1.504zM67.625 96.878l3.334-1.569-3.53-7.496-3.332 1.566zM83.96 86.52l2.766-2.432-5.471-6.223-2.767 2.431zM95.444 70.703l1.362-3.422-7.698-3.067-1.364 3.422zM91.713 51.844H100v-3.683h-8.287zM96.798 32.428l-1.25-3.465-7.795 2.81 1.25 3.465zM86.935 15.952l-2.432-2.767-6.223 5.472 2.432 2.765zM71.35 4.145l-3.363-1.503-3.381 7.565 3.361 1.503zM48.132 8.288h3.683V0h-3.683z" mask="url(#d)"/>
        <path stroke="#FFF" stroke-linecap="round" stroke-linejoin="round" stroke-width="1.667" d="M36.848 30.418S25.494 30.145 24.47 43.25" mask="url(#d)"/>
    </g>
</svg>
