<svg xmlns="http://www.w3.org/2000/svg" width="40" height="40" viewBox="0 0 40 40">
    <g fill="none" fill-rule="evenodd">
        <circle cx="20" cy="20" r="20" fill="#FFA259"/>
        <path stroke="#FFF" stroke-width="1.6" d="M19.932 11.195a.888.888 0 0 0-.946.122l-5.112 4.255-4.074-.017h-.004a.886.886 0 0 0-.889.888l-.018 7.11a.89.89 0 0 0 .888.891H13.9l5.086 4.24A.889.889 0 0 0 20.444 28V12c0-.344-.2-.658-.512-.805z"/>
        <path fill="#FFF" d="M24.15 15.195a.885.885 0 0 0-1.173.418.894.894 0 0 0 .407 1.186c.056.029 1.387.721 1.387 2.691 0 2.106-1.245 2.804-1.286 2.826a.89.89 0 0 0 .795 1.592c.093-.047 2.269-1.173 2.269-4.418 0-3.13-2.302-4.248-2.4-4.295zM28.254 13.25a.887.887 0 0 0-1.222.266.893.893 0 0 0 .258 1.23c.096.062 2.373 1.614 2.373 5.476 0 3.87-2.184 5.423-2.271 5.483a.888.888 0 1 0 .986 1.478c.125-.082 3.063-2.096 3.063-6.962 0-4.874-3.057-6.887-3.187-6.97z"/>
    </g>
</svg>
