<svg xmlns="http://www.w3.org/2000/svg" width="18" height="18" viewBox="0 0 18 18">
    <g fill="none" fill-rule="evenodd">
        <circle cx="9" cy="9" r="9" fill="#7DADFF"/>
        <path fill="#FFF" d="M11.48 10.455c-.29-.122-1.092-.327-1.188-.676-.151-.551.424-.972.68-1.406.268-.457.493-1.077.537-1.595.157-1.858-1.035-2.945-2.744-2.757C7.523 4.158 6.78 5.043 6.7 6.184c-.081 1.161.37 2.02.849 2.649.21.275.43.452.396.784-.04.392-.478.501-.792.622-.372.143-.772.36-.962.46-.651.344-1.366.758-1.527 1.324-.356 1.256.846 1.636 1.838 1.812.852.15 1.812.161 2.603.161 1.428 0 3.998-.054 4.412-1.08.118-.292.067-.756 0-.947-.26-.74-1.297-1.204-2.037-1.514z"/>
    </g>
</svg>
