<svg xmlns="http://www.w3.org/2000/svg" width="33" height="39" viewBox="0 0 33 39">
    <g fill="none" fill-rule="evenodd">
        <path fill="#F9AE08" d="M16.417 36.593c-1.088-.84-2.915-1.557-5.721-1.299-5.206.48-6.491 1.934-6.491 2.806 0 .872 2.92.823 6.491.823 2.028 0 3.904-.066 5.146-.269.416-.068.824-.059 1.156-.049 1.236.23 3.206.304 5.345.304 3.572 0 6.491.049 6.491-.823 0-.724-1.285-2.327-6.49-2.806-3.245-.299-5.037.487-5.927 1.313z"/>
        <path fill="#000" d="M10.777 1.343c-7.472 4.102-6.52 15.022-6.52 15.022s-1.035 2.342-1.487 3.52c-.528 1.38-1.452 4.153-1.452 4.153s-.66 1.652-1.064 3.96C-.15 30.304.063 32.112.548 32c.954-.22 3.404-4.254 3.404-4.254s-.201 5.123 4.253 8.254c3.66 2.765 8.026 2.576 8.026 2.576h.49s4.44.226 8.098-2.54c4.455-3.13 4.254-8.254 4.254-8.254s2.45 4.035 3.404 4.255c.485.111.698-1.697.293-4.004-.404-2.308-1.063-3.96-1.063-3.96s-.925-2.773-1.453-4.152c-.451-1.179-1.486-3.52-1.486-3.52s.952-10.92-6.52-15.022c-.461-.204-.892-.404-1.334-.555-2.31-.89-5.926-1.44-10.137.518z"/>
        <path fill="#FFF" d="M7.695 31.186c1.222 3.616 4.002 6.004 8.846 6.004 7.447-.285 9.577-5.507 9.577-12.3a15.44 15.44 0 0 0-.58-4.227c-3.433-.118-12.4-.118-17.959-.118a15.417 15.417 0 0 0-.614 4.344c0 2.286.11 4.463.73 6.297z"/>
        <ellipse cx="13.266" cy="8.022" fill="#FFF" rx="2.156" ry="3.085"/>
        <ellipse cx="19.734" cy="8.022" fill="#FFF" rx="2.156" ry="3.085"/>
        <ellipse cx="13.93" cy="8.228" fill="#000" rx="1" ry="1.234"/>
        <path fill="#000" d="M18.07 8.373s-.036.438.382.392c.485-.693 1.174-.633 1.174-.633s.744-.002.964.301c.432 0 .488-.454.488-.454s-.379-.646-1.506-.529c-1.055.143-1.501.923-1.501.923z"/>
        <path fill="#F9AE08" d="M9.17 13.823s-.419-.242.1-.566c.52-.324 2.15-1.19 7.216-1.237 4.759-.044 6.772.83 7.346 1.342.205.153.156.24.13.319-.13.435-4.16 2.395-7.355 2.31-4.49 0-7.437-2.168-7.437-2.168z"/>
        <path fill="#E82220" d="M15.761 18.093c-6.97-.257-11.538-1.735-11.538-1.735s-.655 1.502-.941 2.203c-.306.75-.835 2.15-.835 2.15s3.87 1.194 6.343 1.48v5.659s2.775.525 5.356.143v-5.19s8.44.606 16.384-2.092a46.312 46.312 0 0 0-.907-2.35c-.534-1.295-.866-1.954-.866-1.954s-6.769 1.96-12.996 1.686z"/>
    </g>
</svg>
