<svg xmlns="http://www.w3.org/2000/svg" width="18" height="18" viewBox="0 0 18 18">
    <g fill="none" fill-rule="evenodd" stroke="#FFF" stroke-width="1.4">
        <path d="M6.532 1.552c-.133 0-.27.024-.4.075a8.052 8.052 0 0 0-1.863 1.03c-.45.333-.579.95-.301 1.435a1.935 1.935 0 0 1-.019 1.97 1.936 1.936 0 0 1-1.666.942h-.097c-.545 0-1.011.399-1.091.942A7.965 7.965 0 0 0 1 9.126c0 .292.019.597.058.933.064.556.536.976 1.096.976a1.936 1.936 0 0 1 1.703.995A1.938 1.938 0 0 1 3.814 14a1.103 1.103 0 0 0 .256 1.445c.57.449 1.185.816 1.829 1.09a1.103 1.103 0 0 0 1.39-.468c.108-.19.209-.327.318-.433.366-.36.85-.557 1.363-.557.528 0 1.023.208 1.392.585.106.108.204.247.308.437a1.103 1.103 0 0 0 1.38.496 8.045 8.045 0 0 0 1.851-1.051c.446-.338.569-.955.286-1.437a1.958 1.958 0 0 1-.206-.493 1.95 1.95 0 0 1 1.394-2.377c.155-.04.32-.06.488-.06h.065c.55 0 1.018-.407 1.093-.954.056-.41.082-.759.082-1.098 0-.314-.022-.637-.07-1.015a1.104 1.104 0 0 0-1.094-.965h-.013c-.198 0-.369-.023-.53-.066a1.95 1.95 0 0 1-1.37-2.39c.047-.168.118-.333.213-.492.287-.48.17-1.098-.272-1.44A8.028 8.028 0 0 0 12.28 1.75a1.1 1.1 0 0 0-1.395.453c-.11.187-.211.323-.32.429a1.94 1.94 0 0 1-1.35.542 1.932 1.932 0 0 1-1.405-.6c-.105-.109-.201-.248-.303-.438a1.105 1.105 0 0 0-.974-.585"/>
        <path stroke-linecap="round" stroke-linejoin="round" d="M10.793 9.113a1.741 1.741 0 1 1-3.482 0 1.741 1.741 0 0 1 3.482 0z"/>
    </g>
</svg>
