<svg width="75px" height="75px" viewBox="0 0 75 75" version="1.1" xmlns="http://www.w3.org/2000/svg" xmlns:xlink="http://www.w3.org/1999/xlink">
    <!-- Generator: Sketch 43.1 (39012) - http://www.bohemiancoding.com/sketch -->
    <title>Group 2</title>
    <desc>Created with Sketch.</desc>
    <defs></defs>
    <g id="规范文档" stroke="none" stroke-width="1" fill="none" fill-rule="evenodd">
        <g id="全局图标" transform="translate(-853.000000, -1387.000000)">
            <g id="Group-2" transform="translate(854.000000, 1388.000000)">
                <g id="圈-头条-彩" stroke="#DBDCDC" stroke-width="0.694444444" fill="#EEEEEE">
                    <circle id="Oval-3-Copy" cx="36.5" cy="36.5" r="36.5"></circle>
                </g>
                <g id="Group-7" transform="translate(16.000000, 25.000000)" fill="#FF2828">
                    <polygon id="Path" points="30.0570311 22.7723544 30.0570311 17.1237656 22.1815685 17.5952514 22.1815685 15.0068776 30.047715 14.5834431 30.0570311 13.2843516 33.8218284 13.0531935 33.8218284 14.3523561 41.6877679 13.8904664 41.6877679 16.4597902 33.8310755 16.912155 33.8591617 22.5702687"></polygon>
                    <polygon id="Path" points="38.6423094 22.2624133 35.8491438 17.537604 39.6418204 17.3163263 42.4071758 22.0506605"></polygon>
                    <polygon id="Path" points="25.9932913 23.0320874 22.1815685 23.2342441 24.7321021 18.2015794 28.5062155 17.9800884"></polygon>
                    <polygon id="Path" points="25.8904694 0.543573162 28.9079798 2.03529646 41.3795785 1.32319868 41.3795785 5.7592025 35.2230347 8.90592406 39.8661652 10.6860974 41.6877679 10.5609934 41.6877679 13.1497226 38.9785851 13.322949 31.8506165 10.6189962 24.9187686 14.1215534 22.2003386 14.2851127 22.2003386 11.7157888 23.984539 11.6098058 28.5062155 9.32921637 25.8530671 8.28985784 27.4038826 5.94209605 31.8414385 7.64521671 37.6240281 4.71024792 37.6240281 4.09446602 27.3012678 4.67172157 25.217918 8.06865118 22.0133961 6.88506761"></polygon>
                    <polygon id="Path" points="16.2119673 23.5518377 13.1943879 17.4894816 17.3891048 17.2969209 20.4251783 23.3208218"></polygon>
                    <polygon id="Path" points="7.52400514 24.0809709 0.498720411 24.5142146 0.498720411 21.9544868 4.66528205 21.7042788 8.0657865 17.0851682 0.395898574 17.5375329 0.395898574 14.9778762 11.4477278 14.3042337 11.466291 3.05524965 15.2310883 2.82409154 15.2310883 14.0635506 19.8741498 13.823223 19.8741498 16.3826664 12.839618 16.8060298"></polygon>
                    <polygon id="Path" points="6.2067815 9.08867545 9.25224008 13.0341436 5.08560944 13.2650173 2.04021986 9.30995319"></polygon>
                    <polygon id="Path" points="6.2067815 4.13313454 9.25224008 8.07824723 5.07629336 8.32845527 2.04021986 4.37346221"></polygon>
                </g>
            </g>
        </g>
    </g>
</svg>