<svg xmlns="http://www.w3.org/2000/svg" width="8" height="9" viewBox="0 0 8 9">
    <path fill="#FFF" fill-rule="evenodd" d="M5.354 5.04c.861-.48 1.415-1.32 1.415-2.34C6.77 1.2 5.54 0 4 0 2.462 0 1.23 1.2 1.23 2.7c0 1.02.555 1.86 1.416 2.34C1.108 5.58 0 7.02 0 8.7c0 .18.123.3.308.3.184 0 .307-.12.307-.3 0-1.8 1.477-3.24 3.323-3.3h.124c1.846.06 3.323 1.5 3.323 3.3 0 .18.123.3.307.3C7.877 9 8 8.88 8 8.7c0-1.68-1.108-3.12-2.646-3.66zM2 2.7c0-1.086.914-2 2-2 1.086 0 2 .914 2 2 0 1.086-.857 1.943-1.943 2h-.114C2.857 4.643 2 3.786 2 2.7z"/>
</svg>
