<?xml version="1.0" encoding="UTF-8"?>
<svg width="103px" height="103px" viewBox="0 0 103 103" version="1.1" xmlns="http://www.w3.org/2000/svg" xmlns:xlink="http://www.w3.org/1999/xlink">
    <!-- Generator: Sketch 43.1 (39012) - http://www.bohemiancoding.com/sketch -->
    <title>审核中</title>
    <desc>Created with Sketch.</desc>
    <defs>
        <linearGradient x1="50%" y1="-22.7424766%" x2="60.7271635%" y2="100%" id="linearGradient-1">
            <stop stop-color="#955DFB" offset="0%"></stop>
            <stop stop-color="#5938FE" stop-opacity="0.814000226" offset="100%"></stop>
        </linearGradient>
        <path d="M100.000333,49.5241667 C100.000333,22.1975 77.8486667,0.0458333333 50.522,0.0458333333 C41.5803333,0.0458333333 33.2003333,2.43083333 25.962,6.57916667 L25.907,8.5825 L49.322,49.5241667 L25.907,91.2525 L40.4203333,97.9658333 C43.682,98.6425 47.0603333,99.0008333 50.522,99.0008333 C77.8486667,99.0008333 100.000333,76.8491667 100.000333,49.5241667" id="path-2"></path>
    </defs>
    <g id="规范文档" stroke="none" stroke-width="1" fill="none" fill-rule="evenodd">
        <g id="全局图标" transform="translate(-701.000000, -1825.000000)">
            <g id="审核中" transform="translate(703.000000, 1827.000000)">
                <g id="Fill-1">
                    <use fill="#892EFF" xlink:href="#path-2"></use>
                    <use fill="url(#linearGradient-1)" xlink:href="#path-2"></use>
                </g>
                <path d="M98.9546667,49.4768333 C98.9546667,76.8035 76.803,98.9551667 49.4763333,98.9551667 C22.1513333,98.9551667 -0.000333333333,76.8035 -0.000333333333,49.4768333 C-0.000333333333,22.1518333 22.1513333,0.000166666667 49.4763333,0.000166666667 C76.803,0.000166666667 98.9546667,22.1518333 98.9546667,49.4768333 Z" id="Stroke-3" stroke="#3E3A39" stroke-width="3.33333333"></path>
                <path d="M55.3625,49.4768333 C55.3625,52.6051667 52.8275,55.1401667 49.7008333,55.1401667 C46.5725,55.1401667 44.0375,52.6051667 44.0375,49.4768333 C44.0375,46.3501667 46.5725,43.8151667 49.7008333,43.8151667 C52.8275,43.8151667 55.3625,46.3501667 55.3625,49.4768333" id="Fill-5" fill="#3E3A39"></path>
                <path d="M52.1585,14.8895 C52.1585,16.3711667 50.9585,17.5711667 49.4768333,17.5711667 C47.9951667,17.5711667 46.7951667,16.3711667 46.7951667,14.8895 C46.7951667,13.4078333 47.9951667,12.2078333 49.4768333,12.2078333 C50.9585,12.2078333 52.1585,13.4078333 52.1585,14.8895" id="Fill-7" fill="#231815"></path>
                <path d="M34.5356667,19.1301667 C34.5356667,20.5135 33.414,21.6351667 32.0306667,21.6351667 C30.6473333,21.6351667 29.5256667,20.5135 29.5256667,19.1301667 C29.5256667,17.7468333 30.6473333,16.6251667 32.0306667,16.6251667 C33.414,16.6251667 34.5356667,17.7468333 34.5356667,19.1301667" id="Fill-9" fill="#231815"></path>
                <path d="M21.8786667,32.645 C21.8786667,34.0283333 20.757,35.15 19.3736667,35.15 C17.9903333,35.15 16.8686667,34.0283333 16.8686667,32.645 C16.8686667,31.2616667 17.9903333,30.14 19.3736667,30.14 C20.757,30.14 21.8786667,31.2616667 21.8786667,32.645" id="Fill-11" fill="#231815"></path>
                <path d="M16.868,49.4768333 C16.868,50.8601667 15.7463333,51.9818333 14.363,51.9818333 C12.9796667,51.9818333 11.858,50.8601667 11.858,49.4768333 C11.858,48.0935 12.9796667,46.9718333 14.363,46.9718333 C15.7463333,46.9718333 16.868,48.0935 16.868,49.4768333" id="Fill-13" fill="#231815"></path>
                <path d="M21.8786667,67.1998333 C21.8786667,68.5831667 20.757,69.7048333 19.3736667,69.7048333 C17.9903333,69.7048333 16.8686667,68.5831667 16.8686667,67.1998333 C16.8686667,65.8165 17.9903333,64.6948333 19.3736667,64.6948333 C20.757,64.6948333 21.8786667,65.8165 21.8786667,67.1998333" id="Fill-15" fill="#231815"></path>
                <path d="M34.5356667,79.6575 C34.5356667,81.0425 33.414,82.1625 32.0306667,82.1625 C30.6473333,82.1625 29.5256667,81.0425 29.5256667,79.6575 C29.5256667,78.2741667 30.6473333,77.1525 32.0306667,77.1525 C33.414,77.1525 34.5356667,78.2741667 34.5356667,79.6575" id="Fill-17" fill="#231815"></path>
                <path d="M51.982,84.6681667 C51.982,86.0515 50.8603333,87.1731667 49.477,87.1731667 C48.0936667,87.1731667 46.972,86.0515 46.972,84.6681667 C46.972,83.2848333 48.0936667,82.1631667 49.477,82.1631667 C50.8603333,82.1631667 51.982,83.2848333 51.982,84.6681667" id="Fill-19" fill="#231815"></path>
                <path d="M69.2126667,79.6575 C69.2126667,81.0425 68.091,82.1625 66.7076667,82.1625 C65.3243333,82.1625 64.2026667,81.0425 64.2026667,79.6575 C64.2026667,78.2741667 65.3243333,77.1525 66.7076667,77.1525 C68.091,77.1525 69.2126667,78.2741667 69.2126667,79.6575" id="Fill-21" fill="#231815"></path>
                <path d="M82.266,67.1998333 C82.266,68.5831667 81.1443333,69.7048333 79.761,69.7048333 C78.3776667,69.7048333 77.256,68.5831667 77.256,67.1998333 C77.256,65.8165 78.3776667,64.6948333 79.761,64.6948333 C81.1443333,64.6948333 82.266,65.8165 82.266,67.1998333" id="Fill-23" fill="#231815"></path>
                <path d="M87.2765,49.4768333 C87.2765,50.8601667 86.1548333,51.9818333 84.7715,51.9818333 C83.3881667,51.9818333 82.2665,50.8601667 82.2665,49.4768333 C82.2665,48.0935 83.3881667,46.9718333 84.7715,46.9718333 C86.1548333,46.9718333 87.2765,48.0935 87.2765,49.4768333" id="Fill-25" fill="#231815"></path>
                <path d="M82.266,32.645 C82.266,34.0283333 81.1443333,35.15 79.761,35.15 C78.3776667,35.15 77.256,34.0283333 77.256,32.645 C77.256,31.2616667 78.3776667,30.14 79.761,30.14 C81.1443333,30.14 82.266,31.2616667 82.266,32.645" id="Fill-27" fill="#231815"></path>
                <path d="M69.2126667,19.1301667 C69.2126667,20.5135 68.091,21.6351667 66.7076667,21.6351667 C65.3243333,21.6351667 64.2026667,20.5135 64.2026667,19.1301667 C64.2026667,17.7468333 65.3243333,16.6251667 66.7076667,16.6251667 C68.091,16.6251667 69.2126667,17.7468333 69.2126667,19.1301667" id="Fill-29" fill="#231815"></path>
                <path d="M49.7,49.5241667 L49.7,49.5241667 C48.7633333,49.5241667 48.005,48.7658333 48.005,47.8291667 L48.005,26.8875 C48.005,25.9508333 48.7633333,25.1925 49.7,25.1925 C50.635,25.1925 51.3933333,25.9508333 51.3933333,26.8875 L51.3933333,47.8291667 C51.3933333,48.7658333 50.635,49.5241667 49.7,49.5241667" id="Fill-31" fill="#3E3A39"></path>
                <path d="M45.216,51.0596667 L31.1076667,51.0596667 C30.2343333,51.0596667 29.526,50.3513333 29.526,49.4763333 C29.526,48.603 30.2343333,47.8946667 31.1076667,47.8946667 L45.216,47.8946667 C46.0893333,47.8946667 46.7976667,48.603 46.7976667,49.4763333 C46.7976667,50.3513333 46.0893333,51.0596667 45.216,51.0596667" id="Fill-33" fill="#3E3A39"></path>
            </g>
        </g>
    </g>
</svg>