<?xml version="1.0" encoding="UTF-8"?>
<svg width="103px" height="88px" viewBox="0 0 103 88" version="1.1" xmlns="http://www.w3.org/2000/svg" xmlns:xlink="http://www.w3.org/1999/xlink">
    <!-- Generator: Sketch 43.1 (39012) - http://www.bohemiancoding.com/sketch -->
    <title>视频管理</title>
    <desc>Created with Sketch.</desc>
    <defs>
        <linearGradient x1="54.2548077%" y1="-5.60515873%" x2="60.7271635%" y2="100%" id="linearGradient-1">
            <stop stop-color="#955DFB" offset="0%"></stop>
            <stop stop-color="#7F37FE" offset="24.703225%"></stop>
            <stop stop-color="#5938FE" stop-opacity="0.814000226" offset="100%"></stop>
        </linearGradient>
        <path d="M34.2430357,22.6676292 L2.56625,41.0178792 C1.58053571,41.5876292 0.350178571,40.8745458 0.350178571,39.7332542 L0.350178571,3.03454583 C0.350178571,1.89325417 1.58053571,1.18017083 2.56625,1.7517125 L34.2430357,20.1001708 C35.2269643,20.6717125 35.2269643,22.0978792 34.2430357,22.6676292" id="path-2"></path>
    </defs>
    <g id="规范文档" stroke="none" stroke-width="1" fill="none" fill-rule="evenodd">
        <g id="全局图标" transform="translate(-386.000000, -1840.000000)">
            <g id="视频管理" transform="translate(388.000000, 1841.000000)">
                <g id="Group-7" transform="translate(0.000000, 0.596733)" stroke="#3E3A39" stroke-width="3.57142857">
                    <polygon id="Stroke-1" stroke-linecap="round" stroke-linejoin="round" points="98.8539286 84.207975 0.446785714 84.207975 0.446785714 0.194933333 15.3717857 0.194933333 98.8539286 0.194933333"></polygon>
                    <path d="M16.1321429,84.207975 L16.1321429,0.194933333" id="Stroke-3"></path>
                    <path d="M83.9273214,84.207975 L83.9273214,0.194933333" id="Stroke-5"></path>
                </g>
                <path d="M0.446071429,42.1519333 L15.1192857,42.1519333" id="Stroke-8" stroke="#3E3A39" stroke-width="3.57142857"></path>
                <path d="M0.446071429,20.5890458 L15.1192857,20.5890458" id="Stroke-9" stroke="#3E3A39" stroke-width="3.57142857"></path>
                <path d="M1.84553571,63.7158958 L16.51875,63.7158958" id="Stroke-10" stroke="#3E3A39" stroke-width="3.57142857"></path>
                <g id="Group-19" transform="translate(33.142857, 20.305067)">
                    <path d="M50.7844643,21.8468667 L65.4576786,21.8468667" id="Stroke-11" stroke="#3E3A39" stroke-width="3.57142857"></path>
                    <path d="M50.7844643,0.283979167 L65.4576786,0.283979167" id="Stroke-13" stroke="#3E3A39" stroke-width="3.57142857"></path>
                    <path d="M52.1839286,43.4108292 L66.8571429,43.4108292" id="Stroke-15" stroke="#3E3A39" stroke-width="3.57142857"></path>
                    <g id="Fill-17">
                        <use fill="#892EFF" xlink:href="#path-2"></use>
                        <use fill="url(#linearGradient-1)" xlink:href="#path-2"></use>
                    </g>
                </g>
            </g>
        </g>
    </g>
</svg>