<?xml version="1.0" encoding="UTF-8"?>
<svg width="100px" height="97px" viewBox="0 0 100 97" version="1.1" xmlns="http://www.w3.org/2000/svg" xmlns:xlink="http://www.w3.org/1999/xlink">
    <!-- Generator: Sketch 43.1 (39012) - http://www.bohemiancoding.com/sketch -->
    <title>页1</title>
    <desc>Created with Sketch.</desc>
    <defs>
        <polygon id="path-1" points="100 45.1548379 100 0.872665517 0.000166666667 0.872665517 0.000166666667 45.1548379"></polygon>
        <linearGradient x1="50.2367973%" y1="-11.2848485%" x2="50%" y2="100%" id="linearGradient-3">
            <stop stop-color="#955DFB" offset="0%"></stop>
            <stop stop-color="#7F37FE" offset="8.8971607%"></stop>
            <stop stop-color="#5938FE" stop-opacity="0.814000226" offset="100%"></stop>
        </linearGradient>
        <polygon id="path-4" points="0.000166666667 88.6375966 49.8101667 44.3554241 100.000167 88.6375966"></polygon>
    </defs>
    <g id="规范文档" stroke="none" stroke-width="1" fill="none" fill-rule="evenodd">
        <g id="全局图标" transform="translate(-73.000000, -1829.000000)">
            <g id="页1" transform="translate(73.000000, 1829.000000)">
                <polygon id="Fill-1" fill="#EFEFEF" points="48.613 0.000501724138 -0.000333333333 36.2400362 49.9213333 69.8154155 99.843 36.2400362 48.6163333 0.000501724138"></polygon>
                <g id="Group-17" transform="translate(0.000000, 8.090971)">
                    <path d="M86.5105,71.3172431 L13.3321667,71.3172431 C11.1738333,71.3172431 9.42383333,69.5612086 9.42383333,67.3954328 L9.42383333,4.35713966 C9.42383333,2.19136379 11.1738333,0.43532931 13.3321667,0.43532931 L86.5105,0.43532931 C88.6688333,0.43532931 90.4188333,2.19136379 90.4188333,4.35713966 L90.4188333,67.3954328 C90.4188333,69.5612086 88.6688333,71.3172431 86.5105,71.3172431 Z" id="Stroke-2" stroke="#3E3A39" stroke-width="3.33333333"></path>
                    <g id="Group-6" transform="translate(0.000000, 43.482759)">
                        <mask id="mask-2" fill="white">
                            <use xlink:href="#path-1"></use>
                        </mask>
                        <g id="Clip-5"></g>
                    </g>
                    <polygon id="Fill-7" fill="#7445FD" points="0.000166666667 88.6375966 0.000166666667 28.1497345 41.2753906 54.7508262"></polygon>
                    <polygon id="Fill-9" fill="#7445FD" points="99.843 88.6375966 99.843 28.1497345 59.6835938 53.5447715"></polygon>
                    <g id="Fill-4">
                        <use fill="#7200EB" xlink:href="#path-4"></use>
                        <use fill="url(#linearGradient-3)" xlink:href="#path-4"></use>
                    </g>
                    <path d="M75.5478333,17.2235207 L24.2961667,17.2235207 C23.5628333,17.2235207 22.9678333,16.6281414 22.9678333,15.8922793 C22.9678333,15.1564172 23.5628333,14.5593655 24.2961667,14.5593655 L75.5478333,14.5593655 C76.2811667,14.5593655 76.8745,15.1564172 76.8745,15.8922793 C76.8745,16.6281414 76.2811667,17.2235207 75.5478333,17.2235207" id="Fill-11" fill="#3E3A39"></path>
                    <path d="M75.5478333,29.4816448 L24.2961667,29.4816448 C23.5628333,29.4816448 22.9678333,28.8845931 22.9678333,28.148731 C22.9678333,27.412869 23.5628333,26.8174897 24.2961667,26.8174897 L75.5478333,26.8174897 C76.2811667,26.8174897 76.8745,27.412869 76.8745,28.148731 C76.8745,28.8845931 76.2811667,29.4816448 75.5478333,29.4816448" id="Fill-13" fill="#3E3A39"></path>
                    <path d="M75.5478333,41.7389328 L24.2961667,41.7389328 C23.5628333,41.7389328 22.9678333,41.1435534 22.9678333,40.4076914 C22.9678333,39.6718293 23.5628333,39.0747776 24.2961667,39.0747776 L75.5478333,39.0747776 C76.2811667,39.0747776 76.8745,39.6718293 76.8745,40.4076914 C76.8745,41.1435534 76.2811667,41.7389328 75.5478333,41.7389328" id="Fill-15" fill="#3E3A39"></path>
                </g>
            </g>
        </g>
    </g>
</svg>