<?xml version="1.0" encoding="UTF-8"?>
<svg width="213px" height="120px" viewBox="0 0 213 120" version="1.1" xmlns="http://www.w3.org/2000/svg" xmlns:xlink="http://www.w3.org/1999/xlink">
    <!-- Generator: Sketch 43.1 (39012) - http://www.bohemiancoding.com/sketch -->
    <title>站位图</title>
    <desc>Created with Sketch.</desc>
    <defs>
        <polygon id="path-1" points="0.118562391 0.257645755 7.36803527 0.257645755 7.36803527 13.0196467 0.118562391 13.0196467 0.118562391 0.257645755"></polygon>
        <polygon id="path-3" points="3.23969551 0.112584348 3.23969551 4.27526235 0.0660140288 4.27526235 0.0660140288 0.112584348 3.23969551 0.112584348"></polygon>
        <polygon id="path-5" points="0 5.66973926 0 0.142683453 3.01757952 0.142683453 3.01757952 5.66973926"></polygon>
        <path d="M12.1337896,1.46927179 C13.0725555,0.529908781 14.303391,0.0604344559 15.5338123,0.0604344559 C16.7646479,0.0604344559 17.9950692,0.529908781 18.9338351,1.46927179 C20.8117811,3.34716909 20.8117811,6.3919152 18.9338351,8.27064123 L12.6408723,14.5644149 L18.9338351,20.8586028 C20.8117811,22.7369145 20.8117811,25.782075 18.9338351,27.6599723 C17.0563033,29.5382839 14.0117356,29.5382839 12.1337896,27.6599723 L5.84082679,21.3657843 L0.790713799,16.3146881 C-0.175809057,15.347977 -0.175809057,13.781267 0.790713799,12.814556 L5.84124108,7.76345979 L12.1337896,1.46927179 Z" id="path-7"></path>
        <path d="M11.4923341,24.9465723 L5.84082679,19.2939647 L0.790713799,14.2428685 C-0.175809057,13.2761574 -0.175809057,11.7094474 0.790713799,10.7427364 L5.84124108,5.69164017 L11.4923341,0.0390747991 L11.4923341,24.9465723 L11.4923341,24.9465723 Z" id="path-9"></path>
    </defs>
    <g id="2.0-版本" stroke="none" stroke-width="1" fill="none" fill-rule="evenodd">
        <g id="视频管理" transform="translate(-456.000000, -729.000000)">
            <g id="站位图" transform="translate(456.000000, 729.000000)">
                <rect id="Rectangle-2" fill="#EEEEEE" x="0" y="0" width="212.380055" height="119.870003"></rect>
                <g id="Group-16" transform="translate(49.555102, 43.382353)">
                    <g id="Group-2" transform="translate(39.991837, 0.867647)">
                        <path d="M4.61464474,11.7125638 C4.96295558,11.7125638 5.24838994,11.4267771 5.24838994,11.0768917 L5.2508801,7.71842923 C5.2508801,7.62962899 5.36822879,7.60086272 5.40962767,7.67934462 C5.80587406,8.43602269 6.28367311,9.21583884 6.85329675,9.94531402 C6.99897099,10.1316694 7.21561473,10.2292246 7.43474863,10.2292246 C7.59411874,10.2295373 7.7550452,10.1779456 7.89044754,10.0713228 C8.21354554,9.81680382 8.2468514,9.32683914 7.99410037,9.00102982 C6.71166901,7.34759444 5.9278918,5.35584267 5.53911588,4.17642545 C5.52106224,4.12170699 5.56214984,4.06667586 5.61973475,4.06667586 C5.92695799,4.06698853 6.77859201,4.06761389 7.37716373,4.06823924 C7.72516331,4.06823924 8.00966385,3.78245257 8.00997512,3.43287981 L8.01028639,3.22932715 C8.01028639,2.87944172 7.72578585,2.59271701 7.377475,2.59271701 L5.33928071,2.59115362 C5.29259024,2.59115362 5.25492661,2.55300704 5.25492661,2.50610551 L5.25617168,0.636610399 C5.25648295,0.286724962 4.97167114,0.000312932937 4.62336029,2.56048954e-07 L4.42103496,2.56048954e-07 C4.07272411,-0.000312420839 3.78760103,0.285786931 3.78728976,0.635672369 L3.78573341,2.50516748 C3.78573341,2.55175634 3.74806977,2.58990292 3.70137931,2.58990292 L1.66349628,2.58833953 C1.31487417,2.58802686 1.02975108,2.87412621 1.02943981,3.22401165 L1.02943981,3.42725162 C1.02912854,3.77713706 1.31394036,4.06354909 1.6622512,4.06386177 L3.41905765,4.06511247 C3.47664255,4.06511247 3.51804143,4.12014361 3.49998778,4.17486206 C3.1109006,5.35177787 2.32618957,7.33883949 1.03753282,8.99508896 C0.784159251,9.32089828 0.816220035,9.81211367 1.13994057,10.067258 C1.27503164,10.1732555 1.43564683,10.2248472 1.59470567,10.2251598 C1.8135283,10.2251598 2.03048331,10.1279173 2.17646882,9.9415619 C2.74702627,9.21302475 3.2260704,8.43414663 3.6232506,7.67809391 C3.66464948,7.59929934 3.78199817,7.62837829 3.78199817,7.71717852 L3.77950801,11.075641 C3.77919674,11.4255264 4.06400856,11.7122511 4.4123194,11.7125638 L4.61464474,11.7125638 Z" id="Fill-1" fill="#C1C1C1"></path>
                        <path d="M14.154483,10.1200691 L10.3744232,10.117255 C10.257697,10.117255 10.1633823,10.0222012 10.1633823,9.90526008 L10.1686739,2.55610251 C10.1689851,2.43884868 10.2636111,2.34410758 10.380026,2.34410758 L14.1603971,2.34692168 C14.276812,2.34692168 14.371438,2.44197545 14.3711267,2.55922928 L14.3658351,9.90807417 C14.3658351,10.025328 14.2712091,10.1200691 14.154483,10.1200691 M9.31423841,11.5921519 L9.31735111,11.5921519 L9.54115406,11.5921519 L14.9855732,11.5962167 L15.2093761,11.5965294 L15.2121776,11.5965294 C15.5539517,11.596842 15.8337832,11.3160582 15.8340945,10.9730517 L15.8340945,10.9699249 L15.8340945,10.748237 L15.8406312,1.72125522 L15.8406312,1.72125522 L15.8409424,1.49956731 L15.8409424,1.49956731 L15.8409424,1.49644054 C15.8412537,1.153434 15.5617335,0.872337473 15.2202706,0.872024796 L15.2174691,0.872024796 L14.9936662,0.872024796 L9.5489358,0.867959997 L9.32513285,0.86764732 L9.32233143,0.86764732 C8.98055725,0.867334643 8.70103702,1.14811849 8.70072575,1.49112503 L8.69387781,10.9674235 C8.69356654,11.3107427 8.9727755,11.5918392 9.31423841,11.5921519" id="Fill-3" fill="#C1C1C1"></path>
                        <path d="M11.6852416,6.10864339 L13.06012,4.72973832 C13.3458657,4.44301361 13.3461769,3.97337293 13.0607426,3.68633554 C12.7753082,3.39898548 12.3077811,3.39867281 12.0220354,3.68539751 L10.647157,5.06461526 C10.3614113,5.35133997 10.3611001,5.82066798 10.6465344,6.10801804 C10.9319688,6.39505542 11.3994959,6.3953681 11.6852416,6.10864339" id="Fill-5" fill="#C1C1C1"></path>
                        <path d="M12.0220354,6.28833869 L10.647157,7.66755644 C10.3614113,7.95428115 10.3611001,8.42360916 10.6465344,8.71095922 C10.9319688,8.9979966 11.3991847,8.99830927 11.6849303,8.71158457 L13.0598088,7.33267949 C13.3458657,7.04595479 13.3461769,6.5763141 13.0607426,6.28927672 C12.7753082,6.00192666 12.3077811,6.00161398 12.0220354,6.28833869" id="Fill-7" fill="#C1C1C1"></path>
                        <path d="M13.1107394,16.9391138 L7.37341542,16.9347363 C6.51244331,16.9341109 5.81519908,16.2327767 5.81582162,15.3679124 L5.8170667,13.6513163 C5.81737797,13.2998675 5.5341225,13.0150188 5.1842553,13.0147061 L4.98192997,13.0147061 C4.63237404,13.0143935 4.34849604,13.2989294 4.34818477,13.6503783 L4.34725096,14.8032179 L4.34693969,15.5477016 C4.34569461,17.1276579 5.61972168,18.4093205 7.19225643,18.4102585 L9.7873123,18.4121346 L13.1098056,18.414636 C13.4593615,18.4149487 13.7432395,18.1304127 13.7435508,17.7792766 L13.7435508,17.5757239 C13.743862,17.2245878 13.4606066,16.9394264 13.1107394,16.9391138" id="Fill-9" fill="#C1C1C1"></path>
                        <path d="M54.1587934,16.4726625 L53.4512773,16.4723498 C52.5903052,16.4717244 51.893061,15.7700775 51.8936835,14.9052132 L51.8958624,11.9163348 C51.8961737,11.564886 51.6129182,11.2800374 51.263051,11.2797247 L51.0607257,11.279412 C50.7108585,11.2790993 50.4272917,11.5636353 50.4269805,11.9150841 L50.4251128,14.3408314 L50.4244903,15.0850024 C50.4235565,16.6649587 51.6975836,17.9463086 53.2701183,17.9475593 L53.3684796,17.947872 L54.1578596,17.9481847 C54.5074156,17.9484974 54.7912936,17.6639614 54.7916048,17.3128252 L54.7916048,17.1092726 C54.7919161,16.7581364 54.5086606,16.4729751 54.1587934,16.4726625" id="Fill-11" fill="#C1C1C1"></path>
                        <g id="Group-15" transform="translate(58.248980, 0.000000)">
                            <mask id="mask-2" fill="white">
                                <use xlink:href="#path-1"></use>
                            </mask>
                            <g id="Clip-14"></g>
                            <path d="M7.36803502,7.44180373 L7.36803502,7.23856375 C7.36834629,6.88867832 7.08353447,6.60226629 6.73522363,6.60195361 L4.5924427,6.60039023 C4.54575224,6.60039023 4.5080886,6.56224365 4.5080886,6.51565479 L4.50995622,3.93575779 C4.50995622,3.88885626 4.54761985,3.85070968 4.59431032,3.85102235 L6.26831901,3.85227306 C6.61662985,3.85227306 6.90175294,3.56617371 6.90206421,3.21628827 L6.90206421,3.01304829 C6.90237548,2.66316286 6.61756366,2.37675083 6.26925282,2.37643815 L4.5955554,2.37518744 C4.54886493,2.37518744 4.51120129,2.33704086 4.51120129,2.29045201 L4.5121351,0.894349702 C4.51244637,0.544464265 4.22763456,0.258052235 3.87932371,0.257739559 L3.67699838,0.257426882 C3.32868753,0.257426882 3.04325317,0.543526234 3.04325317,0.893411671 L3.0388954,6.51440408 C3.0388954,6.56130561 3.00123176,6.59913952 2.9545413,6.59913952 L2.34320752,6.59882684 C2.29682833,6.59851416 2.25885342,6.56068026 2.25885342,6.51377873 L2.26134357,3.3619957 C2.26165484,3.01211026 1.97684303,2.72569823 1.62853218,2.72538556 L1.53390618,2.73257712 C1.18559533,2.73226445 0.900472247,3.0183638 0.900160977,3.36824924 L0.897670819,6.5925733 L0.752619118,6.59757613 C0.403997003,6.59726346 0.118873916,6.88336281 0.118562646,7.23324825 L0.118562646,7.43648822 C0.118251376,7.78637366 0.403063193,8.07278569 0.751374039,8.07309837 L2.74225533,8.07434907 C2.78894579,8.07466175 2.8269207,8.11280833 2.82660943,8.15939719 L2.82349673,12.3827239 C2.82318546,12.7326093 3.10799728,13.0190214 3.4566194,13.0193341 L3.65863346,13.0196467 C4.00694431,13.0196467 4.29237866,12.7338601 4.29268993,12.3839746 L4.29549136,8.1606479 C4.29549136,8.11374636 4.33346627,8.07559978 4.38015673,8.07559978 L6.73428982,8.07747584 C7.08260066,8.07778852 7.36803502,7.79168917 7.36803502,7.44180373" id="Fill-13" fill="#C1C1C1" mask="url(#mask-2)"></path>
                        </g>
                        <path d="M65.8431187,4.33823555 C65.4948078,4.33792287 65.2096847,4.62402223 65.2093735,4.97390766 L65.2040819,12.0701096 C65.2037706,12.4199951 65.4885824,12.7064071 65.8368933,12.7067198 L66.0392186,12.7070324 C66.3875295,12.7073451 66.6729638,12.4212458 66.6729638,12.0710477 L66.6782554,4.97515837 C66.6785667,4.62496026 66.3937549,4.33854823 66.045444,4.33823555 L65.8431187,4.33823555 Z" id="Fill-16" fill="#C1C1C1"></path>
                        <path d="M65.8368933,2.34316952 L67.7172738,2.34442023 C67.9971053,2.34473291 68.1994306,2.61363503 68.1231696,2.88410054 L67.5482543,4.92431723 C67.5457642,4.93244683 67.5457642,4.9408891 67.5435853,4.9490187 C67.5392275,4.96809199 67.5361148,4.98747796 67.5336247,5.00686393 C67.5255316,5.05564152 67.522419,5.10379376 67.5242866,5.151946 L67.5239753,5.3007802 C67.523664,5.65066564 67.8084758,5.93707767 68.157098,5.93739035 L71.0089514,5.93957908 C71.2420924,5.93957908 71.4310331,6.12968663 71.4307219,6.36388162 L71.4263641,12.2056239 C71.4260528,12.5555094 71.7108646,12.8419214 72.0591755,12.8422341 L72.2615008,12.8422341 C72.6098117,12.8425467 72.895246,12.5564474 72.895246,12.2065619 L72.9005376,5.304845 L72.9005376,5.11035998 L72.9005376,5.10160502 C72.9008489,4.75171959 72.6160371,4.46530756 72.2677262,4.46499488 L69.7629386,4.46311882 C69.4827958,4.46280614 69.2807817,4.19390402 69.3570428,3.92343851 L69.7146918,2.65490838 C69.7663625,2.47230508 69.9322693,2.34629629 70.1212101,2.34629629 L72.374803,2.34817235 C72.7234251,2.34817235 73.0085482,2.06238568 73.0088595,1.71218756 L73.0088595,1.50926026 C73.0091708,1.15906215 72.7243589,0.872650119 72.3760481,0.872337442 L65.8378271,0.867647288 C65.4898275,0.867334611 65.2043932,1.18657771 65.2040819,1.53646315 L65.2040819,1.73970313 C65.2037706,2.08958857 65.4885824,2.34285684 65.8368933,2.34316952" id="Fill-18" fill="#C1C1C1"></path>
                        <path d="M59.7062483,12.026789 L60.1719078,9.54569787 C60.2441224,9.14672217 59.9776755,8.76056621 59.580184,8.68833785 C59.1826925,8.61579681 58.7985857,8.88344823 58.7266824,9.28273661 L58.2607116,11.7638277 C58.1888082,12.1631161 58.4549439,12.5489594 58.8527466,12.6211877 C59.2502381,12.6934161 59.6343449,12.4260774 59.7062483,12.026789" id="Fill-20" fill="#C1C1C1"></path>
                        <path d="M69.7794073,8.55143136 C69.7797186,8.14151196 69.4488388,7.80882375 69.0410755,7.80882375 C68.6330008,7.80851107 68.3018098,8.14057393 68.3014985,8.55049333 L68.3005647,9.84841509 C68.297452,14.1270856 67.2179686,16.4659087 64.8003364,17.432393 C64.4215212,17.5840413 64.2363157,18.0158481 64.3872815,18.3966885 C64.5024513,18.687478 64.7797926,18.8641405 65.07332,18.8644531 C65.164522,18.8644531 65.2569692,18.8475686 65.3469261,18.8116108 C69.314059,17.2257136 69.7759833,12.9373501 69.7784735,9.8496658 L69.7794073,8.55143136 Z" id="Fill-22" fill="#C1C1C1"></path>
                        <path d="M63.7787179,8.67647081 C63.3706432,8.67615813 63.0394522,9.00822099 63.0394522,9.41814039 C63.0363395,13.455737 61.8616075,15.4459254 58.7047098,16.7613571 C58.3280734,16.9183209 58.1490933,17.3526291 58.3056619,17.7312808 C58.4233219,18.0167548 58.6981731,18.1890398 58.987654,18.1893524 C59.08228,18.1893524 59.1784623,18.1712172 59.2712207,18.1324452 C62.9940068,16.5812552 64.5136257,14.0570147 64.5170497,9.41907842 C64.517361,9.00915902 64.1867925,8.67678349 63.7787179,8.67647081" id="Fill-24" fill="#C1C1C1"></path>
                        <path d="M32.2032133,17.5381147 L24.7688467,17.5324865 C24.5357057,17.5321739 24.3467649,17.342379 24.3467649,17.108184 L24.3505002,11.9202491 C24.3508114,11.6860541 24.5400634,11.4962592 24.7732045,11.4965719 L32.2078823,11.5018874 C32.4410234,11.5022001 32.6299641,11.6923076 32.6296528,11.9265026 L32.6256063,17.1144375 C32.6256063,17.3486325 32.4363543,17.5381147 32.2032133,17.5381147 M35.1808197,7.20164216 L26.7460321,7.19538862 C26.6840894,7.19538862 26.6442469,7.1294138 26.6710161,7.07313196 C26.85093,6.69791969 27.0112339,6.3339638 27.1537955,5.98595442 C27.1665575,5.95437405 27.197062,5.93436273 27.2309904,5.93436273 L34.461164,5.93967824 C34.815389,5.93999092 35.1054924,5.64920141 35.1058037,5.29337511 L35.1058037,5.11139716 C35.1061149,4.75588354 34.8166341,4.46446868 34.4624091,4.46415601 L27.8242705,4.45915318 C27.7673082,4.45915318 27.7274656,4.40255866 27.7442742,4.3478402 C27.931036,3.74843861 28.0530538,3.25565984 28.1283811,2.90858849 C28.1364741,2.87263065 28.1660447,2.84730382 28.2024633,2.84386437 L33.6481275,2.34045459 C34.0505992,2.30449674 34.350352,1.94429297 34.314556,1.54000175 C34.2784487,1.13571054 33.9201772,0.834602694 33.5177054,0.870560536 L22.0688929,1.92959715 C21.6667324,1.965555 21.3666684,2.32575877 21.4024644,2.72973731 C21.4385717,3.13402853 21.7968432,3.43513637 22.1993149,3.39917853 L26.464333,3.00489297 C26.5225404,2.99926479 26.5692309,3.05241986 26.55429,3.10932705 C26.4605978,3.46390264 26.3314208,3.90196296 26.1586661,4.39974457 C26.1465266,4.43413903 26.1141545,4.45790247 26.0780472,4.45790247 L21.6119489,4.45446302 C21.257724,4.45446302 20.9676206,4.74525253 20.9673093,5.10107883 L20.9673093,5.2827441 C20.966998,5.6385704 21.2564789,5.92998526 21.6107039,5.92998526 L25.4203343,5.93311203 C25.4819657,5.93311203 25.5236758,5.99627276 25.4981517,6.0525546 C25.3378478,6.40587948 25.1588677,6.77264947 24.9593438,7.14817441 C24.9444028,7.17600265 24.9151435,7.19382524 24.8837052,7.19382524 L20.8891806,7.19101114 C20.5408697,7.19069847 20.2557467,7.47679782 20.2554354,7.82668326 L20.2554354,8.02992323 C20.2551241,8.37980867 20.5399359,8.6662207 20.8882468,8.66653338 L23.8966689,8.66872212 C23.9645257,8.66872212 24.0062358,8.7447026 23.9682609,8.80129712 C23.0565518,10.1589402 21.8656338,11.5412847 20.3102189,12.7538457 C20.0110886,12.9871026 19.8993428,13.4079657 20.0901512,13.7365891 C20.2311563,13.9798517 20.4789271,14.1077366 20.730433,14.1080493 C20.8879355,14.1080493 21.0473056,14.0577083 21.1820854,13.9532742 C21.7445498,13.5167773 22.2612576,13.0608944 22.739368,12.5940678 C22.7929064,12.5418507 22.881307,12.5799973 22.8809957,12.6547271 L22.8769492,18.1828545 L22.8769492,18.3551394 L22.8769492,18.3620183 C22.8766379,18.7165939 23.165185,19.0067581 23.5181649,19.0070707 L23.5250128,19.0070707 L23.5250128,19.0070707 L33.444557,19.014575 C33.8012722,19.0148877 34.0935545,18.7219094 34.0938657,18.3635817 L34.0938657,18.3620183 L34.0938657,18.3620183 L34.0919981,10.8574603 L34.0904418,10.6873641 L34.0904418,10.6723556 C34.090753,10.31778 33.802206,10.0273032 33.4492261,10.0273032 L33.2637093,10.0273032 L33.1946074,10.0273032 L25.100349,10.0210497 C25.0318696,10.0210497 24.9932722,9.94381846 25.0324922,9.88753662 C25.3082772,9.49262572 25.5616507,9.09927819 25.7932354,8.7109335 C25.8084876,8.68560667 25.8352568,8.6702855 25.8648275,8.6702855 L35.1798859,8.67716439 C35.5281967,8.67747707 35.8133198,8.39137772 35.8136311,8.04149228 L35.8136311,7.8382523 C35.8139423,7.48836686 35.5291305,7.20195484 35.1808197,7.20164216" id="Fill-26" fill="#C1C1C1"></path>
                        <path d="M41.8515569,2.91403151 C42.0977713,3.1616716 42.5008656,3.16198428 42.74708,2.91465686 L42.890264,2.77113817 C43.1367897,2.52381075 43.137101,2.11920686 42.8911979,1.87156676 L41.2159441,0.185925661 C40.9697297,-0.0617144341 40.5666354,-0.0620271109 40.3201098,0.185300307 L40.1769257,0.328818999 C39.9304,0.576146417 39.9300888,0.981062986 40.1763031,1.22870308 L41.8515569,2.91403151 Z" id="Fill-28" fill="#C1C1C1"></path>
                        <path d="M44.4036924,12.2420819 C44.752937,12.0382166 44.8724646,11.5842097 44.6695168,11.2333863 L43.250438,8.81139111 C43.2361196,8.78700231 43.235497,8.75667265 43.2479478,8.73103315 C44.1661936,6.86403945 44.4036924,5.36600448 44.4201897,5.25531686 C44.4233024,5.23468019 44.421746,5.21466887 44.4229911,5.19403219 C44.4229911,5.18965472 44.4242362,5.18558992 44.4242362,5.18121244 L44.4242362,5.1668293 C44.42517,5.13993909 44.4264151,5.11304888 44.4242362,5.08647134 L44.4245475,4.97828514 C44.4248587,4.62808703 44.1400469,4.341675 43.7917361,4.34136232 L39.3113194,4.33823555 C38.9630085,4.33792287 38.6778854,4.62402223 38.6775742,4.97390766 L38.6772629,5.17714764 C38.6769516,5.5267204 38.9617634,5.81344511 39.3100743,5.81375778 L42.6649396,5.8162592 C42.7209681,5.8162592 42.762367,5.86878892 42.7468035,5.92319469 C42.3393514,7.34118438 41.236834,10.1680961 38.5620931,12.2530256 C38.2947124,12.4615811 38.1751848,12.8214722 38.3068519,13.1344618 C38.4344725,13.4377583 38.7118138,13.5984743 38.9932017,13.5984743 C39.1510154,13.5987869 39.3100743,13.5481333 39.4448541,13.4440119 C40.0054509,13.0090783 40.5031712,12.5475672 40.9470419,12.0741744 C40.9993352,12.0182053 41.0917823,12.0547885 41.091471,12.131707 L41.0871133,18.0325452 C41.0871133,18.3824306 41.3716138,18.6688427 41.7199246,18.6691553 L41.92225,18.669468 C42.2705608,18.6697807 42.5559952,18.3836813 42.5559952,18.0334832 L42.561598,10.8559853 C42.561598,10.7696865 42.6752115,10.7387314 42.7187893,10.8131485 L43.3995362,11.9750559 C43.6024841,12.3258793 44.0544477,12.4459472 44.4036924,12.2420819" id="Fill-30" fill="#C1C1C1"></path>
                        <path d="M45.8409749,11.6759493 L46.0433002,11.6759493 C46.3916111,11.676262 46.6770454,11.3901626 46.6770454,11.0402772 L46.6832708,2.76778476 C46.6835821,2.53358978 46.8725228,2.34379491 47.1056639,2.34410758 L51.5502846,2.34754703 C51.7834256,2.34754703 51.9723664,2.5373419 51.9723664,2.77184956 L51.966141,11.044342 C51.9658297,11.3942274 52.2506415,11.6809521 52.5989524,11.6809521 L52.8012777,11.6812648 C53.1495885,11.6815775 53.4347116,11.3954781 53.4350229,11.04528 L53.4418708,1.72062987 L53.4421821,1.50926029 L53.4421821,1.50113069 C53.4424934,1.15562273 53.1611055,0.872962825 52.8171524,0.872650148 L52.8093707,0.872650148 L52.6070454,0.872650148 L46.0513933,0.867647318 L46.0513933,0.867647318 L45.8490679,0.867647318 L45.8487567,0.867647318 L45.8409749,0.867647318 C45.4973331,0.867334641 45.215634,1.14968187 45.2153227,1.49518983 L45.2153227,1.50331943 L45.2150115,1.71437633 L45.2081635,11.0393392 C45.2078523,11.3892246 45.4926641,11.6756366 45.8409749,11.6759493" id="Fill-32" fill="#C1C1C1"></path>
                        <path d="M50.6320102,4.21319606 C50.6323215,3.80327666 50.3014418,3.47058846 49.8936784,3.47058846 C49.4856038,3.47027578 49.1544128,3.80202596 49.1541015,4.21194536 L49.1516113,7.58885574 C49.1478761,12.8552726 47.8072373,15.7390915 44.8044181,16.9394581 C44.4256028,17.0907937 44.2403973,17.5222878 44.3913631,17.9034409 C44.5065329,18.1939177 44.7838743,18.3712055 45.0774016,18.3712055 C45.1686037,18.3715182 45.2613621,18.354321 45.3510077,18.3183631 C48.9477297,16.8806748 50.6251623,13.4715587 50.6295201,7.58979377 L50.6320102,4.21319606 Z" id="Fill-34" fill="#C1C1C1"></path>
                        <path d="M15.3669482,12.7131077 C15.2701433,12.3150701 14.870473,12.0711821 14.4739153,12.1684246 C14.0773577,12.2653544 13.8348785,12.6668316 13.9313722,13.0648692 C13.9522272,13.1508554 14.4536828,15.1923228 15.4260895,17.0058487 C15.5596242,17.2547395 15.8139316,17.3960695 16.0766433,17.3963822 C16.195237,17.3963822 16.3153871,17.3676159 16.427133,17.3072693 C16.7863383,17.1127842 16.9208068,16.6628422 16.727197,16.3020131 C15.8469262,14.6601467 15.3716173,12.7324937 15.3669482,12.7131077" id="Fill-36" fill="#C1C1C1"></path>
                        <g id="Group-40" transform="translate(69.551020, 13.882353)">
                            <mask id="mask-4" fill="white">
                                <use xlink:href="#path-3"></use>
                            </mask>
                            <g id="Clip-39"></g>
                            <path d="M3.16878826,3.21591306 C3.1385951,3.15212697 2.42111833,1.63877084 1.37151675,0.378682979 C1.1097389,0.0641300297 0.643768088,0.0225440036 0.330630724,0.285505266 C0.0178046294,0.548779206 -0.0235942467,1.01654383 0.238183609,1.33109678 C1.16296602,2.44172508 1.82659312,3.83688936 1.83281852,3.85095982 C1.95919403,4.11829856 2.22439586,4.27494968 2.50080339,4.27526235 C2.6066351,4.27526235 2.7146457,4.25243694 2.81705345,4.20365935 C3.18559683,4.02856029 3.34309932,3.58643517 3.16878826,3.21591306" id="Fill-38" fill="#C1C1C1" mask="url(#mask-4)"></path>
                        </g>
                        <path d="M9.25798204,12.168407 C8.86142438,12.2656495 8.61832271,12.6671266 8.7151276,13.065477 C8.72602204,13.1105024 8.98873371,14.1811081 9.49983863,15.1338346 C9.63337335,15.3824127 9.88736946,15.5237427 10.1503924,15.5240553 C10.2689862,15.5240553 10.3891363,15.4956017 10.5008821,15.4352551 C10.8597761,15.2407701 10.9942447,14.790828 10.8009462,14.4296862 C10.3819771,13.6486194 10.1528826,12.7224704 10.1507037,12.7130901 C10.0535875,12.3153651 9.65391715,12.0711645 9.25798204,12.168407" id="Fill-41" fill="#C1C1C1"></path>
                        <g id="Group-45" transform="translate(0.000000, 11.279412)">
                            <mask id="mask-6" fill="white">
                                <use xlink:href="#path-5"></use>
                            </mask>
                            <g id="Clip-44"></g>
                            <path d="M2.45504674,0.164124098 C2.05942289,0.0668815863 1.65881873,0.309518851 1.56108003,0.707556529 C1.55609971,0.728505881 1.04094828,2.80530577 0.0890854012,4.5744316 C-0.10514692,4.93526073 0.0286990705,5.38551545 0.387593087,5.58031315 C0.499027656,5.64097246 0.619489048,5.66973874 0.737771551,5.66973874 C1.00079449,5.67005141 1.25510187,5.52903414 1.38894786,5.28045601 C2.43325785,3.33967057 2.9739334,1.15374645 2.99603355,1.06181944 C3.09346098,0.663781765 2.85129312,0.261991964 2.45504674,0.164124098" id="Fill-43" fill="#C1C1C1" mask="url(#mask-6)"></path>
                        </g>
                        <path d="M27.5203328,15.9422642 L29.8778898,14.385446 C30.0982688,14.2397385 30.0985801,13.9148672 29.8782011,13.7688471 L27.5231342,12.2085895 C27.2790987,12.0469355 26.9538218,12.2226599 26.9535106,12.5162635 L26.9510204,15.6336521 C26.9510204,15.9275684 27.275986,16.1036055 27.5203328,15.9422642" id="Fill-46" fill="#C1C1C1"></path>
                        <path d="M1.95758679,27.489738 C1.85549031,27.3674814 1.73160495,27.2283402 1.58593071,27.071689 C2.28659891,26.6814683 2.76346416,26.2934363 3.01652646,25.907593 C3.26990003,25.5217497 3.40156713,25.0064582 3.41152777,24.3617185 C3.41650808,24.317631 3.41899824,24.2688534 3.41899824,24.215073 L1.39107585,24.2135096 L1.38734061,29.0868916 L0.869387755,29.0865789 L0.873434262,23.7222942 L3.42677998,23.7241703 C3.4317603,23.3867919 3.43456173,22.9984472 3.434873,22.5588235 L3.96029633,22.5591362 C3.95998506,22.9990726 3.95718363,23.3874173 3.95220331,23.724483 L6.43987112,23.726359 L6.43644715,28.0866382 C6.44578525,28.692606 6.14883391,29.0024688 5.54590441,29.0165393 C5.16646659,29.0312351 4.81379797,29.0356126 4.48789855,29.0306098 C4.45895046,28.8545727 4.41755158,28.6666539 4.36432446,28.466228 C4.71450292,28.4859266 5.04756155,28.4959323 5.36381161,28.496245 C5.74791848,28.5159436 5.93281271,28.3377178 5.91880557,27.9615675 L5.92129572,24.2169491 L3.9369511,24.2153857 C3.93228205,24.2691661 3.92979189,24.3179437 3.92948062,24.3620311 C3.90987063,24.7919619 3.85633223,25.1631093 3.7682429,25.4757862 L3.83392081,25.4173156 C4.45614903,25.9257283 5.06374758,26.4513381 5.65671644,26.9941452 L5.26264894,27.3821772 C4.66968008,26.8102912 4.12277914,26.3040673 3.62225738,25.8641309 C3.36888381,26.4353916 2.81388986,26.9772606 1.95758679,27.489738" id="Fill-48" fill="#C1C1C1"></path>
                        <path d="M19.1992882,25.6533867 C18.5720797,25.3013125 17.8524241,24.9439228 17.0406326,24.581843 L17.3036555,24.2081941 C18.0133505,24.5361922 18.730516,24.8810748 19.4548407,25.2431546 L19.1992882,25.6533867 Z M14.7185603,27.2255261 L14.7179377,28.4349603 L18.0955257,28.437149 L18.0964595,27.2280275 L14.7185603,27.2255261 Z M16.4271199,25.3654113 C15.8478469,25.9219761 15.196048,26.4003718 14.4711008,26.8002855 L18.4176899,26.8034123 C17.6544565,26.4313268 16.9908294,25.9523058 16.4271199,25.3654113 L16.4271199,25.3654113 Z M13.3782327,24.5277499 L13.3791665,23.3770989 L16.2316425,23.3792877 C16.1833957,23.1056954 16.1273671,22.8564919 16.0644906,22.6316772 L16.5970732,22.5588235 C16.66493,22.8324158 16.7206473,23.1060081 16.764225,23.379913 L19.4563971,23.3817891 L19.4554632,24.53244 L18.9375104,24.5318147 L18.9381329,23.8135959 L13.8896489,23.8098438 L13.8890264,24.5280626 L13.3782327,24.5277499 Z M13.6253809,25.6859051 C13.5428944,25.5489526 13.4457783,25.4094987 13.3340324,25.2678561 C14.0393697,24.9751905 14.7499985,24.621553 15.4649851,24.2069434 L15.7638041,24.5880965 C15.0195581,24.9980159 14.3067504,25.3638479 13.6253809,25.6859051 L13.6253809,25.6859051 Z M14.2065215,29.2404159 L14.2080779,26.9394267 C13.9210872,27.0857595 13.6194668,27.2270895 13.3032167,27.3637293 C13.2061006,27.202388 13.1186338,27.0535538 13.0408163,26.9166013 C14.4760811,26.3703548 15.5807774,25.6580768 16.354594,24.7791421 L16.9018062,24.8748212 C16.8336382,24.9382946 16.7729406,24.9992666 16.7190909,25.0577372 C17.1274768,25.458589 17.5722813,25.8034716 18.0535043,26.0920724 C18.5397077,26.3709801 19.1133778,26.6158061 19.774826,26.8262377 C19.6481392,27.0069649 19.5653415,27.1557991 19.5264327,27.273053 C19.190884,27.1507963 18.8845945,27.0260382 18.6072532,26.8987787 L18.6056968,29.2438554 L18.0949032,29.24323 L18.0952145,28.8695812 L14.7176264,28.8670797 L14.7173152,29.2410413 L14.2065215,29.2404159 Z" id="Fill-50" fill="#C1C1C1"></path>
                        <path d="M29.2363629,23.0365938 L29.2348065,25.0739964 L31.4308146,25.0755598 L31.4323709,23.0381572 L29.2363629,23.0365938 Z M27.2666479,23.0350304 L27.2669592,22.5588235 L33.3074599,22.563201 L33.3071486,23.0397206 L31.9649535,23.0384699 L31.9633971,25.0758725 L33.6047225,25.0771232 L33.6044112,25.5827217 L31.9627746,25.581471 L31.9605957,28.6666539 L31.4280132,28.6663412 L31.430192,25.5811583 L29.2270248,25.5795949 C29.2117726,26.375983 29.0751252,26.9997734 28.8170825,27.4515915 C28.5590399,27.9034096 28.1014734,28.3317769 27.4446942,28.7366935 C27.323299,28.5850452 27.1969235,28.4337096 27.0655677,28.2820613 C27.6691197,27.9453083 28.0887113,27.5854172 28.3249651,27.2020753 C28.5612188,26.8187334 28.6819915,26.2778024 28.687283,25.5789696 L26.9510204,25.5777189 L26.9513317,25.0721204 L28.6950648,25.0733711 L28.6966211,23.0362811 L27.2666479,23.0350304 Z" id="Fill-52" fill="#C1C1C1"></path>
                        <path d="M44.8737914,27.0588693 C45.3120592,26.4044366 45.5850428,25.488606 45.6927421,24.3113775 L44.1606724,24.3101268 C44.1363934,24.3589044 44.1121144,24.4004904 44.0878353,24.4345722 C44.208608,25.5436371 44.4706971,26.418507 44.8737914,27.0588693 L44.8737914,27.0588693 Z M46.4186232,29.1850721 C45.7674469,28.7695246 45.2519842,28.3367797 44.8731689,27.8868377 C44.4495308,28.3702362 43.8827086,28.8292458 43.172391,29.2632414 C43.0653142,29.1169086 42.9510782,28.9602575 42.829683,28.794226 C43.5692599,28.364608 44.1435526,27.9231082 44.552561,27.4691014 C44.1395061,26.8481251 43.8677676,26.0564272 43.7370343,25.0940077 C43.6006982,25.3575944 43.4547127,25.601795 43.2987665,25.8266097 C43.192001,25.6846544 43.0802551,25.5455132 42.963529,25.4085607 C43.5235033,24.6615756 43.9546119,23.7113505 44.2571661,22.5588235 L44.7748076,22.6323026 C44.6577702,23.0475375 44.5164538,23.450578 44.3508583,23.8411114 L46.7289591,23.8429875 L46.7286478,24.3120028 L46.1742764,24.3116902 C46.0566165,25.6452571 45.7251142,26.7052317 45.1797696,27.4913014 C45.5685455,27.9559393 46.0933463,28.3546023 46.7547945,28.6872905 C46.6281077,28.8580121 46.5160506,29.0240435 46.4186232,29.1850721 L46.4186232,29.1850721 Z M40.1045164,24.255721 L40.1051389,23.7942099 L41.7028865,23.7951479 C41.5861604,23.4093047 41.4647652,23.0331544 41.3387009,22.6663844 L41.8494946,22.564139 C41.907702,22.745179 41.9733799,22.9452922 42.0462171,23.1654167 C42.1090935,23.3802257 42.1626319,23.560953 42.2062097,23.7079111 L41.8196127,23.7954606 L43.278534,23.7963987 L43.2782227,24.2582224 L41.3738744,24.2569717 C41.3639138,24.6815869 41.351463,25.072433 41.3368333,25.4291974 L42.8978511,25.4304481 C42.8928708,25.7872124 42.8829101,26.2071375 42.8676579,26.6908486 C42.852717,27.1745597 42.8355971,27.6263778 42.8156759,28.0466156 C42.825014,28.691668 42.5230823,29.0112238 41.9105034,29.0059083 C41.7013302,29.0059083 41.5042964,29.0055956 41.3194022,29.0055956 C41.3050838,28.8492572 41.2758244,28.6807243 41.2322467,28.4996844 C41.3732519,28.5146929 41.5481855,28.5218845 41.7573587,28.5221971 C42.1464459,28.5515888 42.3413008,28.3758643 42.341612,27.9950239 C42.3662024,27.599175 42.3858123,27.2061401 42.4007533,26.815294 C42.4107139,26.4144422 42.4160055,26.1067682 42.4160055,25.8919592 L41.3072627,25.8910211 C41.2577708,26.7458797 41.1625222,27.4031266 41.0212058,27.8621362 C40.8942077,28.3211459 40.677564,28.7704626 40.3709633,29.2100863 C40.2592174,29.0975226 40.1328419,28.9777674 39.9918367,28.8505079 C40.2838078,28.4208898 40.4908021,27.9787647 40.6128199,27.5247579 C40.7251883,27.0801313 40.803317,26.4450846 40.8478285,25.6193049 C40.8674385,25.1455994 40.8823795,24.6912799 40.8923401,24.2563464 L40.1045164,24.255721 Z" id="Fill-54" fill="#C1C1C1"></path>
                        <path d="M57.6366439,25.4861046 L57.2428876,25.1559178 C57.7247332,24.6531333 58.1555305,24.1306502 58.5352796,23.5887812 L58.9726136,23.8895764 C58.5346571,24.4411384 58.0892301,24.9733145 57.6366439,25.4861046 L57.6366439,25.4861046 Z M54.8644755,25.4620284 C54.4756996,24.9145312 54.0750954,24.3889214 53.6617292,23.8855116 L54.056108,23.5925333 C54.4884617,24.091253 54.9064969,24.6093586 55.3095912,25.1471628 L54.8644755,25.4620284 Z M53.3560623,23.0497262 L53.3566849,22.5588235 L59.3240372,22.563201 L59.3234146,23.0544164 L56.5876648,23.0522277 L56.5857972,25.9322945 L59.6278364,25.9344832 L59.6275252,26.4400817 L56.5854859,26.437893 L56.5836183,28.8855277 L56.0510358,28.885215 L56.0529034,26.4375803 L53.0326531,26.4353916 L53.0329643,25.9294804 L56.0532147,25.9319818 L56.0550823,23.051915 L53.3560623,23.0497262 Z" id="Fill-56" fill="#C1C1C1"></path>
                        <path d="M67.2833749,26.6542654 L67.2821298,28.3252107 L71.1633523,28.3280248 L71.1645973,26.6570795 L67.2833749,26.6542654 Z M66.7778728,29.2407286 L66.780363,26.192129 L71.675391,26.1958811 L71.6732121,29.2444807 L71.1624185,29.2441681 L71.1627297,28.7823443 L67.2818185,28.7795302 L67.2815073,29.2410413 L66.7778728,29.2407286 Z M72.1572366,25.8006575 C71.982303,25.6146148 71.8027003,25.4288847 71.6178061,25.2431546 C69.9543806,25.2712955 68.4440998,25.3188224 67.0872749,25.3863606 C66.7809855,25.4057466 66.5182739,25.4348255 66.29914,25.4735975 L66.0734694,24.9604947 C66.2779736,24.8679423 66.4725172,24.7481871 66.6574114,24.6018543 C67.387339,23.9965119 68.0711986,23.3155016 68.7089903,22.5588235 L69.2630505,22.8230355 C68.6159207,23.5065472 67.8760325,24.2022533 67.0436972,24.909841 C68.2644971,24.8716945 69.6459123,24.8288577 71.1876313,24.7810182 C70.8620432,24.4586483 70.5243155,24.1284615 70.1744483,23.7910831 L70.5685158,23.4981049 C71.2928405,24.1778645 71.970786,24.8354239 72.6023523,25.4710961 L72.1572366,25.8006575 Z" id="Fill-58" fill="#C1C1C1"></path>
                    </g>
                    <g id="Group">
                        <g id="Group-8" transform="translate(8.806599, 0.935391)">
                            <mask id="mask-8" fill="white">
                                <use xlink:href="#path-7"></use>
                            </mask>
                            <g id="Clip-7"></g>
                            <path d="M12.1337896,1.46927179 L5.84124108,7.76345979 L0.790713799,12.814556 C-0.175809057,13.781267 -0.175809057,15.347977 0.790713799,16.3146881 L0.790713799,16.3146881 L5.84082679,21.3657843 L12.1337896,27.6599723 C14.0117356,29.5382839 17.0563033,29.5382839 18.9338351,27.6599723 L18.9338351,27.6599723 C20.8117811,25.782075 20.8117811,22.7369145 18.9338351,20.8586028 L18.9338351,20.8586028 L12.6408723,14.5644149 L18.9338351,8.27064123 C20.8117811,6.3919152 20.8117811,3.34716909 18.9338351,1.46927179 L18.9338351,1.46927179 C17.9950692,0.529908781 16.7646479,0.0604344559 15.5338123,0.0604344559 L15.5338123,0.0604344559 C14.303391,0.0604344559 13.0725555,0.529908781 12.1337896,1.46927179" id="Fill-6" fill="#9B9B9B" mask="url(#mask-8)"></path>
                        </g>
                        <path d="M0.143782975,25.2311425 C0.143782975,29.4937041 5.30326675,31.6210485 8.30682042,28.5966062 L19.5811252,17.2417917 C20.5381195,16.2775668 20.5381195,14.7220446 19.5811252,13.7582342 L8.30682042,2.40341957 C7.33242618,1.4222058 6.13183328,0.983394409 4.95361168,0.983394409 C2.49898333,0.983394409 0.143782975,2.88863973 0.143782975,5.76846899 L0.143782975,25.2311425 Z" id="Fill-9" fill="#C8C8C8"></path>
                        <g id="Group-13" transform="translate(8.806599, 3.007210)">
                            <mask id="mask-10" fill="white">
                                <use xlink:href="#path-9"></use>
                            </mask>
                            <g id="Clip-12"></g>
                            <path d="M-0.50002714,-0.603749476 L10.7742776,10.7510651 C11.7316862,11.7148756 11.7316862,13.2708121 10.7742776,14.2346226 L-0.50002714,25.5894372 C-3.50316652,28.6138795 -8.6626503,26.4865351 -8.6626503,22.2239734 L-8.6626503,2.76129994 C-8.6626503,-1.50126173 -3.50316652,-3.62819175 -0.50002714,-0.603749476" id="Fill-11" fill="#C8C8C8" mask="url(#mask-10)"></path>
                        </g>
                    </g>
                </g>
            </g>
        </g>
    </g>
</svg>