<svg xmlns="http://www.w3.org/2000/svg" width="18" height="18" viewBox="0 0 18 18">
    <g fill="none" fill-rule="evenodd">
        <circle cx="9" cy="9" r="9" fill="#FB9555"/>
        <path fill="#FFF" d="M8.97 5.038a.4.4 0 0 0-.426.055l-2.3 1.914L4.41 7h-.002a.399.399 0 0 0-.4.4L4 10.598a.4.4 0 0 0 .4.401h1.855l2.289 1.908A.4.4 0 0 0 9.2 12.6V5.4a.4.4 0 0 0-.23-.362zm1.55 2a.398.398 0 0 0-.527.188.403.403 0 0 0 .182.533c.026.013.625.325.625 1.211 0 .948-.56 1.262-.579 1.272a.4.4 0 0 0 .358.716c.042-.02 1.02-.528 1.02-1.988 0-1.408-1.035-1.912-1.079-1.932zm1.245-1.175a.4.4 0 0 0-.433.672c.043.029 1.068.727 1.068 2.465 0 1.742-.983 2.44-1.022 2.467a.4.4 0 1 0 .443.666c.057-.037 1.379-.944 1.379-3.133 0-2.194-1.376-3.1-1.435-3.137z"/>
    </g>
</svg>
