<svg xmlns="http://www.w3.org/2000/svg" width="75" height="75" viewBox="0 0 75 75">
    <g fill="none" fill-rule="evenodd" transform="translate(1 1)">
        <circle cx="36.5" cy="36.5" r="36.5" fill="#EEE" stroke="#EEE" stroke-width=".694"/>
        <g fill="#10D11C">
            <path d="M24.857 29.03c-.036.842.635 1.604 1.636 1.562.812-.034 1.516-.645 1.476-1.615-.033-.801-.694-1.533-1.598-1.498-.803.03-1.57.782-1.514 1.551m11.526-1.551c-.871-.031-1.558.73-1.558 1.502 0 .878.669 1.605 1.54 1.612.88.008 1.57-.737 1.576-1.565.004-.84-.693-1.576-1.558-1.55M22.958 45.55c.054-.265.096-.493.148-.72l.692-3.02c.057-.245-.031-.43-.286-.588a11.596 11.596 0 0 1-2.328-1.881c-1.382-1.461-2.417-3.126-2.88-5.107a12.113 12.113 0 0 1-.269-1.82c-.044-.576-.05-1.163.001-1.74a10.048 10.048 0 0 1 1.175-3.892c.665-1.24 1.502-2.343 2.552-3.28 1.756-1.567 3.784-2.6 6.065-3.142.704-.167 1.416-.292 2.14-.319.635-.023 1.273-.06 1.907-.027 2.701.143 5.185.949 7.406 2.528a12.09 12.09 0 0 1 2.001 1.758c1.372 1.526 2.363 3.26 2.761 5.301.052.267.096.536.125.806.02.185-.033.22-.23.24-.525.05-1.052.086-1.572.166-.923.142-1.827.369-2.706.693a13.156 13.156 0 0 0-3.743 2.127c-1.413 1.142-2.52 2.526-3.264 4.194-.391.88-.697 1.788-.818 2.748-.06.473-.103.95-.12 1.426-.013.332.026.666.053.998.025.327-.025.39-.353.391-.412.001-.827.03-1.236-.008-.57-.052-1.136-.153-1.703-.236-.382-.057-.762-.14-1.146-.168-.155-.011-.336.06-.474.146-1.237.763-2.468 1.538-3.7 2.309l-.198.117"/>
            <path d="M40.433 39.004c.016-.896-.564-1.555-1.265-1.556-.598 0-1.231.641-1.227 1.545.004.91.51 1.57 1.258 1.57.68 0 1.234-.705 1.234-1.559m7.176-1.552c-.819-.05-1.569.646-1.567 1.523.001.879.705 1.589 1.58 1.589.841 0 1.52-.716 1.535-1.594.015-.868-.773-1.582-1.548-1.518m4.244 14.952l-2.344-1.383c-.077-.045-.159-.085-.231-.138-.235-.171-.49-.171-.745-.076-.807.3-1.637.513-2.485.653-.841.14-1.693.182-2.541.127-1.845-.121-3.596-.594-5.233-1.46a10.127 10.127 0 0 1-2.964-2.344c-.883-1.022-1.58-2.15-1.975-3.447-.181-.597-.316-1.205-.34-1.83-.022-.524-.061-1.051-.024-1.573.07-.99.335-1.938.748-2.846a9.692 9.692 0 0 1 2.39-3.229c1.487-1.333 3.22-2.205 5.164-2.676a12.12 12.12 0 0 1 2.943-.342c2.693.019 5.142.795 7.299 2.415 1.764 1.326 2.982 3.032 3.577 5.16.152.545.247 1.1.28 1.666.121 2.088-.418 3.995-1.59 5.727-.673.993-1.53 1.808-2.494 2.518-.265.195-.334.393-.23.705.259.78.521 1.558.795 2.373"/>
        </g>
    </g>
</svg>
