<svg xmlns="http://www.w3.org/2000/svg" width="44" height="37" viewBox="0 0 44 37">
    <g fill="#73BF20" fill-rule="evenodd">
        <path d="M30.387 11.301c.293 0 .584.012.868.027C30.062 4.915 23.563.015 15.727.015 7.044.014 0 6.033 0 13.45c0 4.217 2.27 7.976 5.814 10.436.6.42-1.93 4.517-1.267 4.85.877.451 4.982-2.896 5.962-2.601a18.05 18.05 0 0 0 5.216.756c.24 0 .484 0 .721-.01a10.84 10.84 0 0 1-.473-3.164C15.976 16.87 22.44 11.3 30.387 11.3zm-8.51-4.384c1.11 0 2.01.885 2.01 1.978 0 1.09-.9 1.978-2.01 1.978-1.108 0-2.005-.887-2.005-1.978 0-1.093.897-1.978 2.006-1.978zM9.553 10.873c-1.115 0-2.011-.887-2.011-1.978 0-1.093.897-1.978 2.011-1.978 1.106 0 2.004.885 2.004 1.978 0 1.09-.898 1.978-2.004 1.978z"/>
        <path d="M16.778 23.717c0 6.43 6.097 11.637 13.608 11.637 1.587 0 3.104-.232 4.518-.655.85-.257 4.395 2.635 5.16 2.252.573-.294-1.616-3.84-1.098-4.2 3.07-2.13 5.033-5.386 5.033-9.034 0-6.419-6.094-11.626-13.613-11.626-7.511 0-13.608 5.206-13.608 11.626zM34 19.775c0-.943.778-1.711 1.738-1.711s1.733.767 1.733 1.71c0 .949-.774 1.71-1.733 1.71-.96 0-1.738-.76-1.738-1.71zm-10.669 0c0-.943.773-1.711 1.735-1.711.957 0 1.737.767 1.737 1.71 0 .949-.778 1.71-1.737 1.71-.962 0-1.735-.76-1.735-1.71z"/>
    </g>
</svg>
