<svg xmlns="http://www.w3.org/2000/svg" width="43" height="35" viewBox="0 0 43 35">
    <path fill="#FF521C" fill-rule="evenodd" d="M31.827 17.131c-.491-.1-.81-.249-.957-.447-.146-.199-.17-.381-.074-.548l.148-.248a.595.595 0 0 0 .1-.15c.033-.067.098-.208.196-.423.097-.216.17-.431.221-.647.05-.215.091-.48.123-.796a3.346 3.346 0 0 0-.025-.896 3.853 3.853 0 0 0-.296-.92 3.075 3.075 0 0 0-.614-.897c-.46-.465-1.057-.764-1.793-.896a6.6 6.6 0 0 0-2.21-.026c-.736.116-1.432.265-2.086.448-.655.182-1.195.356-1.62.522l-.638.3c-.328.099-.598.165-.811.198-.213.033-.377.025-.492-.025-.115-.05-.205-.1-.27-.15-.065-.05-.09-.166-.074-.349.016-.182.032-.34.049-.472.016-.133.057-.34.122-.623.065-.282.114-.506.148-.672 0-.398-.025-.77-.074-1.12a5.522 5.522 0 0 0-.319-1.168c-.163-.43-.4-.779-.712-1.044-.31-.266-.704-.481-1.178-.647-.475-.165-1.089-.215-1.842-.15-.753.067-1.604.265-2.553.598-1.146.398-2.309.986-3.487 1.766-1.179.779-2.202 1.591-3.069 2.437a55.318 55.318 0 0 0-2.382 2.463 39.955 39.955 0 0 0-1.67 1.941l-.54.796c-1.08 1.427-1.883 2.854-2.406 4.28-.524 1.427-.77 2.505-.737 3.234v1.044c.196 1.593.68 3.02 1.448 4.28.77 1.261 1.686 2.281 2.75 3.06 1.065.78 2.317 1.443 3.757 1.99 1.44.549 2.824.947 4.15 1.195a36.05 36.05 0 0 0 4.198.522c2.424.2 4.936.01 7.538-.571a22.618 22.618 0 0 0 7.268-3.011c2.243-1.427 3.822-3.135 4.739-5.126.556-1.16.842-2.256.86-3.284.016-1.03-.156-1.866-.516-2.513a6.372 6.372 0 0 0-1.4-1.716c-.573-.498-1.113-.863-1.62-1.096-.507-.232-.957-.381-1.35-.447v.004zM16.851 32.606c-3.536.166-6.539-.531-9.01-2.09-2.471-1.56-3.707-3.534-3.707-5.922 0-2.355 1.228-4.387 3.683-6.095 2.456-1.708 5.467-2.645 9.035-2.812 3.568-.166 6.58.43 9.035 1.791 2.456 1.361 3.684 3.219 3.684 5.573 0 2.388-1.253 4.536-3.757 6.444-2.505 1.907-5.492 2.944-8.962 3.11l-.001.001zm-1.424-13.784c-.949.1-1.8.324-2.553.672-.753.348-1.343.746-1.768 1.194a7.581 7.581 0 0 0-1.08 1.443c-.296.514-.501 1.02-.615 1.517a9.698 9.698 0 0 0-.222 1.368c-.033.414-.05.737-.049.97l.049.398v.199c0 .1.033.298.1.597.065.298.155.572.27.821.114.25.302.523.563.822.262.298.573.547.934.747 2.161 1.06 4.174 1.384 6.04.97 1.866-.416 3.372-1.37 4.518-2.862.458-.564.761-1.26.908-2.09a5.944 5.944 0 0 0-.1-2.513 6.426 6.426 0 0 0-1.104-2.314c-.523-.697-1.3-1.236-2.332-1.617-1.03-.381-2.217-.489-3.56-.323l.001.001zm-1.767 9.405a2.221 2.221 0 0 1-.565.026 2.085 2.085 0 0 1-.491-.1 5.366 5.366 0 0 1-.442-.174 1.012 1.012 0 0 1-.368-.274c-.1-.118-.19-.234-.27-.348a1.518 1.518 0 0 1-.27-.871c0-.366.098-.722.295-1.07.197-.348.467-.647.811-.897.344-.25.728-.39 1.153-.423.295-.033.581-.025.86.025.278.05.516.133.712.249.196.115.367.248.515.398.148.15.254.323.319.522.065.198.098.414.1.646 0 .366-.107.714-.32 1.045-.213.331-.5.613-.86.845-.36.233-.753.365-1.178.398l-.001.003zm4.173-3.582c-.23.166-.467.24-.712.224-.245-.016-.417-.123-.515-.323l-.1-.199a.452.452 0 0 1-.048-.199v-.199c0-.1.016-.182.049-.248l.099-.2a.318.318 0 0 1 .147-.15l.148-.198c.262-.2.515-.282.76-.249a.621.621 0 0 1 .516.399.62.62 0 0 1 .122.447 1.24 1.24 0 0 1-.147.473c-.082.15-.188.29-.32.423l.001-.001zm17.432-10.4c.197 0 .377-.05.54-.15.164-.1.295-.224.394-.373.098-.148.164-.306.196-.472.033-.033.049-.083.049-.15.393-3.782-.917-5.938-3.929-6.47-.884-.165-1.702-.181-2.455-.048a.993.993 0 0 0-.59.173 1.56 1.56 0 0 0-.418.447 1.046 1.046 0 0 0-.171.572c0 .332.115.614.344.846.23.23.508.347.835.348 2.553-.598 3.928.232 4.124 2.489a4.241 4.241 0 0 1-.099 1.592c0 .332.115.614.344.845.23.232.508.348.835.35h.001zM34.431.215c-1.44-.333-3.372-.267-5.795.198-.033 0-.066.017-.1.05l-.048.1-.049.05c-.36.099-.655.307-.884.622a1.7 1.7 0 0 0-.344 1.02c0 .498.164.913.491 1.244.328.331.721.497 1.179.498h.148c.032 0 .106-.016.221-.05.115-.032.238-.057.368-.074.13-.017.27-.05.418-.1.149-.05.28-.1.393-.15.113-.05.334-.075.663-.075s.73.025 1.203.075c.474.05.998.174 1.572.373.574.198 1.147.447 1.719.747.572.299 1.145.713 1.719 1.243a8.485 8.485 0 0 1 1.497 1.84c.852 1.958 1.016 3.849.492 5.674a.226.226 0 0 1-.025.1 1.642 1.642 0 0 0-.074.248c-.032.132-.065.256-.099.373a4.628 4.628 0 0 0-.099.447c-.032.182-.049.34-.049.473 0 .298.082.547.246.747.163.2.368.34.614.423.246.083.533.125.86.124.916 0 1.456-.564 1.62-1.692.392-1.294.613-2.53.663-3.707.049-1.177-.033-2.213-.245-3.11a10.08 10.08 0 0 0-.957-2.512 8.423 8.423 0 0 0-1.474-1.99 12.012 12.012 0 0 0-1.867-1.493 12.339 12.339 0 0 0-1.99-1.07C35.78.595 35.118.38 34.43.214z"/>
</svg>
