<svg width="75px" height="75px" viewBox="0 0 75 75" version="1.1" xmlns="http://www.w3.org/2000/svg" xmlns:xlink="http://www.w3.org/1999/xlink">
    <!-- Generator: Sketch 43.1 (39012) - http://www.bohemiancoding.com/sketch -->
    <title>Group 6</title>
    <desc>Created with Sketch.</desc>
    <defs></defs>
    <g id="规范文档" stroke="none" stroke-width="1" fill="none" fill-rule="evenodd">
        <g id="全局图标" transform="translate(-391.000000, -1396.000000)">
            <g id="Group-6" transform="translate(392.000000, 1397.000000)">
                <g id="圈-微博-灰" stroke="#DBDCDC" stroke-width="0.694444444" fill="#EEEEEE">
                    <circle id="Oval-3-Copy" cx="36.5" cy="36.5" r="36.5"></circle>
                </g>
                <g id="Page-1-Copy-2" transform="translate(20.000000, 23.000000)">
                    <path d="M16.5802711,9.86551203 C17.023777,9.74062573 17.4232078,9.64843693 17.808406,9.51673865 C19.4961158,8.94044513 21.1916305,8.37595905 23.012943,8.70747541 C24.8764941,9.04625789 25.6266894,10.2365379 25.1854791,12.0548824 C24.8145135,13.5839449 24.8200229,13.5716833 26.3002123,14.2170049 C27.9250232,14.9249967 29.192642,15.964959 29.4974949,17.8187259 C29.7068517,19.0907496 29.2968613,20.2369788 28.6490489,21.3014642 C27.424587,23.3141773 25.6303623,24.7324315 23.5234798,25.7124484 C17.5535967,28.4885574 11.5056639,28.5480487 5.46553609,25.9386062 C4.45594039,25.5026394 3.50097947,24.8632216 2.64794226,24.1652207 C0.153565974,22.122989 -0.586528739,19.4790325 0.461632693,16.4477013 C1.67415759,12.9386233 4.11068529,10.3169192 6.94893933,8.03036459 C8.87538934,6.47814139 10.9533476,5.16479163 13.4872078,4.80602734 C15.9095029,4.46315768 17.2211968,5.84871443 16.7680495,8.23790292 C16.6890816,8.6547961 16.5839441,9.06669383 16.4980894,9.48267875 C16.4875297,9.5330874 16.5192087,9.5925787 16.5802711,9.86551203 L16.5802711,9.86551203 Z" id="Stroke-1" stroke="#9B9B9B" stroke-width="3" fill="#9B9B9B"></path>
                    <g id="Group-19" transform="translate(3.436346, 9.866938)">
                        <ellipse id="Oval-10" fill="#FFFFFF" transform="translate(11.241080, 9.021855) rotate(-5.000000) translate(-11.241080, -9.021855) " cx="11.2410797" cy="9.02185477" rx="10.6526721" ry="7.13142831"></ellipse>
                        <path d="M9.83118554,14.583673 C12.8494774,14.583673 15.8071909,12.2556228 15.8071909,9.43519768 C15.8071909,6.6147726 13.3135193,4.68482167 10.0810758,5.14220157 C6.84863233,5.59958147 4.81088418,7.29619416 4.81088418,9.87682666 C4.81088418,12.4574592 6.81289367,14.583673 9.83118554,14.583673 Z" id="Oval-11" fill="#9B9B9B"></path>
                        <path d="M8.75530469,12.546122 C9.88716414,12.546122 10.9963067,11.7146755 10.9963067,10.7073808 C10.9963067,9.70008618 10.0611799,9.01081799 8.84901355,9.17416795 C7.63684724,9.33751792 6.87269168,9.94345102 6.87269168,10.8651055 C6.87269168,11.7867599 7.62344524,12.546122 8.75530469,12.546122 Z" id="Oval-11-Copy" fill="#FFFFFF"></path>
                        <path d="M11.9376132,9.15020378 C12.5035429,9.15020378 13.0581142,8.81762518 13.0581142,8.41470731 C13.0581142,8.01178944 12.5905508,7.73608217 11.9844676,7.80142215 C11.3783845,7.86676214 10.9963067,8.10913538 10.9963067,8.47779717 C10.9963067,8.84645895 11.3716835,9.15020378 11.9376132,9.15020378 Z" id="Oval-11-Copy" fill="#FFFFFF"></path>
                    </g>
                    <path d="M30.2398434,11.546122 C30.2398434,11.546122 30.2255857,3.94692313 23.3671517,4.82489938" id="Stroke-5" stroke="#9B9B9B" stroke-width="3" stroke-linecap="round"></path>
                    <path d="M23.3671517,0.00232011024 C23.3671517,0.00232011024 29.5189059,-0.192876455 31.8641131,2.99756238 C34.209779,6.18800121 33.6066208,9.50857108 33.6066208,9.50857108" id="Stroke-7" stroke="#9B9B9B" stroke-width="3" stroke-linecap="round"></path>
                </g>
            </g>
        </g>
    </g>
</svg>