<svg xmlns="http://www.w3.org/2000/svg" width="132" height="38" style="background:#fff" viewBox="0 0 132 38">
    <g fill="none" fill-rule="evenodd">
        <path fill="#FFF" d="M31 37.532H6.514c-3.522 0-6.377-2.861-6.377-6.39V6.602c0-3.53 2.855-6.391 6.377-6.391H31c3.522 0 6.377 2.861 6.377 6.391v24.538c0 3.53-2.855 6.391-6.377 6.391"/>
        <path stroke="#EEE" stroke-width=".5" d="M31 37.532H6.514c-3.522 0-6.377-2.861-6.377-6.39V6.602c0-3.53 2.855-6.391 6.377-6.391H31c3.522 0 6.377 2.861 6.377 6.391v24.538c0 3.53-2.855 6.391-6.377 6.391z"/>
        <path fill="#383838" d="M80.775 29.008l-.001 2.348 2.525.002.002-2.348-2.526-.002zm-2.265-.002v-.548l6.948.005v.549l-1.544-.002-.002 2.349 1.888.001v.583l-1.889-.002-.002 3.556h-.613l.003-3.556-2.534-.002c-.018.918-.175 1.637-.472 2.158-.297.52-.823 1.014-1.579 1.48-.14-.174-.285-.348-.436-.523.695-.388 1.177-.803 1.449-1.245.272-.442.41-1.065.417-1.87l-1.997-.002v-.583l2.006.002.001-2.348-1.644-.002zM98.96 33.067c.504-.754.818-1.81.942-3.167L98.14 29.9a1.073 1.073 0 0 1-.084.143c.14 1.278.44 2.287.904 3.025zm1.777 2.45c-.749-.479-1.342-.977-1.777-1.496-.488.557-1.14 1.086-1.957 1.586l-.394-.54c.85-.495 1.511-1.004 1.982-1.527-.475-.716-.788-1.629-.938-2.738a7.63 7.63 0 0 1-.504.845 10.119 10.119 0 0 0-.386-.482c.644-.861 1.14-1.956 1.488-3.285l.595.085c-.134.479-.297.943-.487 1.393l2.735.002v.541h-.638c-.135 1.537-.517 2.758-1.144 3.664.447.536 1.051.995 1.812 1.379a7.362 7.362 0 0 0-.387.573zm-7.263-5.68l.001-.533 1.838.001a36.709 36.709 0 0 0-.419-1.3l.588-.119c.067.21.142.44.226.693l.184.626-.445.1 1.678.002v.532l-2.19-.001c-.012.489-.026.94-.043 1.35l1.795.002a95.534 95.534 0 0 1-.095 3.015c.012.744-.336 1.112-1.04 1.106h-.68a4.114 4.114 0 0 0-.1-.584c.162.018.363.026.604.026.447.034.671-.168.672-.607.028-.456.05-.91.068-1.36.011-.462.017-.816.017-1.064l-1.275-.001c-.057.985-.167 1.743-.33 2.272a5.093 5.093 0 0 1-.747 1.553 11.04 11.04 0 0 0-.436-.414 5.05 5.05 0 0 0 .714-1.528c.13-.513.22-1.245.27-2.196.023-.546.04-1.07.052-1.571h-.907zM113.964 31.675l-.453-.38a15.31 15.31 0 0 0 1.487-1.806l.503.346a46.101 46.101 0 0 1-1.537 1.84zm-3.188-.027a32.633 32.633 0 0 0-1.384-1.817l.454-.338c.497.575.978 1.172 1.442 1.792l-.512.363zm-1.735-2.78v-.566l6.864.005v.566l-3.147-.003-.002 3.32 3.499.002v.583l-3.5-.003-.002 2.821h-.612l.002-2.821-3.474-.003v-.583l3.474.003.002-3.32-3.104-.002zM125.191 32.604l-.001 1.926 4.464.003.002-1.926-4.465-.003zm-.581 2.98l.003-3.513 5.63.004-.002 3.514h-.588v-.533l-4.464-.003v.532h-.58zm6.187-3.964a31.318 31.318 0 0 0-.62-.643c-1.913.033-3.65.088-5.211.165a8.291 8.291 0 0 0-.907.1l-.26-.59a3.22 3.22 0 0 0 .672-.414 18.713 18.713 0 0 0 2.36-2.354l.637.304a32.55 32.55 0 0 1-2.552 2.405l4.766-.148c-.374-.372-.763-.752-1.165-1.141l.453-.338a93.481 93.481 0 0 1 2.34 2.274l-.513.38z"/>
        <text fill="#50E3C2" font-family="PingFangSC-Medium, PingFang SC" font-size="33.6" font-weight="400">
            <tspan x="5.118" y="31">fl</tspan>
        </text>
        <text fill="#50E3C2" font-family="BigruixianBlackGBV1.0" font-size="23" font-weight="700">
            <tspan x="17.784" y="31">u</tspan>
        </text>
        <text fill="#323232" font-family="PingFangSC-Regular, PingFang SC" font-size="8.5">
            <tspan x="48.75" y="35">组</tspan>
        </text>
        <text fill="#323232" font-family="PingFangSC-Regular, PingFang SC" font-size="8.5">
            <tspan x="62.75" y="35">件</tspan>
        </text>
        <text fill="#373737" font-family="FZRUIZH_DAJW--GB1-0, FZRuiZhengHeiS-EB-GB" font-size="20" letter-spacing="8">
            <tspan x="48.05" y="22">fluu</tspan> <tspan x="125.61" y="22">i</tspan>
        </text>
    </g>
</svg>
